<svg width="24" height="28" viewBox="0 0 24 28" fill="none" xmlns="http://www.w3.org/2000/svg">
<path d="M8.33317 10V16C8.33317 16.8841 8.68436 17.7319 9.30948 18.357C9.9346 18.9821 10.7824 19.3333 11.6665 19.3333C12.5506 19.3333 13.3984 18.9821 14.0235 18.357C14.6486 17.7319 14.9998 16.8841 14.9998 16V8.66667C14.9998 6.89856 14.2975 5.20286 13.0472 3.95262C11.797 2.70238 10.1013 2 8.33317 2C6.56506 2 4.86937 2.70238 3.61913 3.95262C2.36888 5.20286 1.6665 6.89856 1.6665 8.66667V16C1.6665 18.6522 2.72007 21.1957 4.59544 23.0711C6.4708 24.9464 9.01434 26 11.6665 26C14.3187 26 16.8622 24.9464 18.7376 23.0711C20.6129 21.1957 21.6665 18.6522 21.6665 16V4.66667" stroke="#BBBBBB" stroke-width="3" stroke-linecap="round" stroke-linejoin="round"/>
</svg>
