<svg width="26" height="26" viewBox="0 0 26 26" fill="none" xmlns="http://www.w3.org/2000/svg">
<path d="M24.4374 0.567688H1.56197C1.01184 0.567688 0.567383 1.01214 0.567383 1.56227V24.4377C0.567383 24.9878 1.01184 25.4323 1.56197 25.4323H24.4374C24.9875 25.4323 25.432 24.9878 25.432 24.4377V1.56227C25.432 1.01214 24.9875 0.567688 24.4374 0.567688ZM21.5655 7.82504H19.5795C18.0223 7.82504 17.7208 8.56476 17.7208 9.65259V12.0489H21.4381L20.9532 15.8004H17.7208V25.4323H13.8451V15.8035H10.6034V12.0489H13.8451V9.28272C13.8451 6.07209 15.8063 4.32224 18.6719 4.32224C20.0457 4.32224 21.2236 4.42481 21.5686 4.47143V7.82504H21.5655Z" fill="#EE2742"/>
</svg>
