<svg width="156" height="52" viewBox="0 0 156 52" fill="none" xmlns="http://www.w3.org/2000/svg">
<path d="M91.1388 42.4002C91.0112 42.2556 90.8623 42.128 90.6922 42.0174C90.5221 41.8984 90.3307 41.7963 90.118 41.7112C89.9054 41.6261 89.6757 41.5581 89.429 41.5071C89.1908 41.456 88.9356 41.4305 88.6634 41.4305C87.8723 41.4305 87.2896 41.5836 86.9153 41.8898C86.5496 42.1876 86.3667 42.5959 86.3667 43.1148C86.3667 43.4721 86.4517 43.7528 86.6219 43.9569C86.8005 44.1611 87.077 44.327 87.4512 44.4545C87.8255 44.5821 88.3019 44.714 88.8803 44.8501C89.5268 44.9862 90.084 45.1478 90.5519 45.335C91.0197 45.5221 91.3812 45.7773 91.6364 46.1006C91.8916 46.4153 92.0192 46.8449 92.0192 47.3893C92.0192 47.8061 91.9384 48.1676 91.7768 48.4739C91.6152 48.7801 91.3897 49.0353 91.1005 49.2394C90.8113 49.4436 90.4668 49.5967 90.067 49.6988C89.6672 49.7924 89.2291 49.8391 88.7527 49.8391C88.2849 49.8391 87.834 49.7924 87.4002 49.6988C86.9749 49.5967 86.5708 49.4521 86.188 49.265C85.8052 49.0693 85.448 48.8226 85.1162 48.5249L85.5628 47.7976C85.7244 47.9677 85.9158 48.1293 86.137 48.2825C86.3667 48.4271 86.6176 48.5589 86.8898 48.678C87.1705 48.7971 87.4683 48.8907 87.783 48.9587C88.1062 49.0183 88.438 49.048 88.7782 49.048C89.5013 49.048 90.0627 48.9162 90.4625 48.6525C90.8708 48.3888 91.075 47.9975 91.075 47.4786C91.075 47.1043 90.9729 46.8066 90.7688 46.5854C90.5646 46.3557 90.2584 46.1686 89.8501 46.024C89.4418 45.8794 88.9399 45.739 88.3444 45.6029C87.7149 45.4583 87.1833 45.2967 86.7495 45.1181C86.3156 44.9394 85.9881 44.7055 85.767 44.4163C85.5543 44.1185 85.448 43.7272 85.448 43.2424C85.448 42.6809 85.5841 42.2088 85.8563 41.826C86.137 41.4347 86.5198 41.1413 87.0046 40.9456C87.4895 40.7415 88.0467 40.6394 88.6762 40.6394C89.076 40.6394 89.446 40.6819 89.7863 40.767C90.135 40.8435 90.454 40.9584 90.7432 41.1115C91.041 41.2646 91.3174 41.456 91.5726 41.6857L91.1388 42.4002Z" fill="#7F7F7F"/>
<path d="M101.586 43.1148H102.441L99.5831 49.7626H98.8303L97.4395 46.4578L96.0615 49.7626H95.3086L92.4505 43.1148H93.2926L95.7169 48.8694L96.9419 45.8709L95.819 43.1275H96.5974L97.4395 45.2839L98.2944 43.1275H99.06L97.9499 45.8709L99.1748 48.8694L101.586 43.1148Z" fill="#7F7F7F"/>
<path d="M103.596 49.7626V43.1148H104.463V49.7626H103.596ZM103.596 41.724V40.448H104.463V41.724H103.596Z" fill="#7F7F7F"/>
<path d="M109.564 49.4436C109.496 49.4691 109.39 49.5159 109.245 49.584C109.101 49.652 108.926 49.7116 108.722 49.7626C108.518 49.8136 108.297 49.8391 108.059 49.8391C107.812 49.8391 107.578 49.7924 107.357 49.6988C107.144 49.6052 106.974 49.4649 106.847 49.2777C106.719 49.0821 106.655 48.8439 106.655 48.5632V43.8038H105.737V43.1148H106.655V40.8691H107.523V43.1148H109.054V43.8038H107.523V48.3207C107.54 48.5589 107.625 48.7376 107.778 48.8567C107.94 48.9757 108.123 49.0353 108.327 49.0353C108.565 49.0353 108.782 48.997 108.977 48.9205C109.173 48.8354 109.292 48.7758 109.335 48.7418L109.564 49.4436Z" fill="#7F7F7F"/>
<path d="M110.087 49.1756L114.54 43.7655H110.189V43.1148H115.523V43.7017L111.095 49.1118H115.51V49.7626H110.087V49.1756Z" fill="#7F7F7F"/>
<path d="M119.663 49.8902C119.186 49.8902 118.744 49.8009 118.336 49.6222C117.927 49.4351 117.574 49.1842 117.276 48.8694C116.979 48.5462 116.745 48.1761 116.575 47.7593C116.413 47.3425 116.332 46.8959 116.332 46.4195C116.332 45.7986 116.473 45.2286 116.753 44.7097C117.043 44.1908 117.438 43.7783 117.94 43.4721C118.442 43.1573 119.012 42.9999 119.65 42.9999C120.305 42.9999 120.875 43.1573 121.36 43.4721C121.853 43.7868 122.24 44.2036 122.521 44.7225C122.801 45.2329 122.942 45.7943 122.942 46.4068C122.942 46.4748 122.942 46.5429 122.942 46.6109C122.942 46.6705 122.938 46.7173 122.929 46.7513H117.238C117.281 47.2277 117.413 47.653 117.634 48.0273C117.863 48.393 118.157 48.6865 118.514 48.9077C118.88 49.1204 119.276 49.2267 119.701 49.2267C120.135 49.2267 120.543 49.1161 120.926 48.8949C121.317 48.6738 121.589 48.3845 121.742 48.0273L122.495 48.2314C122.359 48.5462 122.151 48.8311 121.87 49.0863C121.589 49.3415 121.258 49.5414 120.875 49.686C120.5 49.8221 120.096 49.8902 119.663 49.8902ZM117.213 46.1261H122.125C122.091 45.6412 121.959 45.2159 121.73 44.8501C121.508 44.4843 121.215 44.1994 120.849 43.9952C120.492 43.7825 120.096 43.6762 119.663 43.6762C119.229 43.6762 118.833 43.7825 118.476 43.9952C118.119 44.1994 117.825 44.4886 117.595 44.8629C117.374 45.2286 117.247 45.6497 117.213 46.1261Z" fill="#7F7F7F"/>
<path d="M127.598 43.8804C127.02 43.8974 126.509 44.059 126.067 44.3652C125.633 44.6715 125.327 45.0925 125.148 45.6284V49.7626H124.28V43.1148H125.097V44.7097C125.327 44.2419 125.629 43.8633 126.003 43.5741C126.386 43.2849 126.79 43.1233 127.215 43.0893C127.3 43.0808 127.373 43.0765 127.432 43.0765C127.5 43.0765 127.555 43.0808 127.598 43.0893V43.8804Z" fill="#7F7F7F"/>
<path d="M128.792 40.448H129.66V48.2569C129.66 48.5887 129.719 48.8056 129.838 48.9077C129.958 49.0098 130.102 49.0608 130.272 49.0608C130.425 49.0608 130.578 49.0438 130.732 49.0098C130.885 48.9757 131.017 48.9417 131.127 48.9077L131.28 49.6095C131.119 49.6775 130.919 49.7328 130.681 49.7754C130.451 49.8179 130.251 49.8391 130.081 49.8391C129.69 49.8391 129.375 49.7243 129.137 49.4946C128.907 49.265 128.792 48.9502 128.792 48.5504V40.448Z" fill="#7F7F7F"/>
<path d="M131.694 47.8486C131.694 47.4318 131.814 47.0745 132.052 46.7768C132.29 46.4706 132.617 46.2367 133.034 46.075C133.46 45.9049 133.949 45.8198 134.502 45.8198C134.825 45.8198 135.161 45.8454 135.51 45.8964C135.858 45.9474 136.169 46.024 136.441 46.1261V45.5646C136.441 45.0032 136.275 44.5566 135.943 44.2249C135.612 43.8931 135.152 43.7272 134.565 43.7272C134.208 43.7272 133.855 43.7953 133.506 43.9314C133.166 44.059 132.809 44.2504 132.435 44.5056L132.103 43.8931C132.537 43.5954 132.962 43.3742 133.379 43.2296C133.796 43.0765 134.221 42.9999 134.655 42.9999C135.471 42.9999 136.118 43.2339 136.594 43.7017C137.071 44.1696 137.309 44.8161 137.309 45.6412V48.7163C137.309 48.8354 137.334 48.9247 137.385 48.9842C137.436 49.0353 137.517 49.0651 137.628 49.0736V49.7626C137.534 49.7711 137.453 49.7796 137.385 49.7881C137.317 49.7966 137.266 49.7966 137.232 49.7881C137.02 49.7796 136.858 49.7116 136.747 49.584C136.637 49.4564 136.577 49.3203 136.569 49.1756L136.556 48.6908C136.258 49.0736 135.871 49.3713 135.395 49.584C134.918 49.7881 134.434 49.8902 133.94 49.8902C133.515 49.8902 133.128 49.8009 132.779 49.6222C132.439 49.4351 132.171 49.1884 131.975 48.8822C131.788 48.5674 131.694 48.2229 131.694 47.8486ZM136.148 48.359C136.241 48.2399 136.313 48.1251 136.365 48.0145C136.416 47.9039 136.441 47.8061 136.441 47.721V46.7513C136.152 46.6407 135.85 46.5556 135.535 46.4961C135.229 46.4366 134.918 46.4068 134.604 46.4068C133.983 46.4068 133.481 46.5301 133.098 46.7768C132.715 47.0235 132.524 47.3595 132.524 47.7848C132.524 48.0315 132.588 48.2655 132.715 48.4866C132.843 48.6993 133.03 48.8779 133.277 49.0225C133.523 49.1586 133.813 49.2267 134.144 49.2267C134.561 49.2267 134.948 49.1459 135.305 48.9842C135.671 48.8226 135.952 48.6142 136.148 48.359Z" fill="#7F7F7F"/>
<path d="M144.772 49.7626H143.905V46.0495C143.905 45.2669 143.79 44.697 143.56 44.3397C143.33 43.9739 142.969 43.791 142.475 43.791C142.135 43.791 141.799 43.8761 141.467 44.0462C141.136 44.2079 140.842 44.4333 140.587 44.7225C140.34 45.0032 140.162 45.3265 140.051 45.6922V49.7626H139.183V43.1148H139.975V44.6204C140.153 44.2972 140.387 44.0165 140.676 43.7783C140.966 43.5316 141.293 43.3402 141.659 43.2041C142.025 43.068 142.403 42.9999 142.794 42.9999C143.16 42.9999 143.471 43.068 143.726 43.2041C143.981 43.3402 144.185 43.5358 144.338 43.791C144.491 44.0377 144.602 44.3397 144.67 44.697C144.738 45.0457 144.772 45.437 144.772 45.8709V49.7626Z" fill="#7F7F7F"/>
<path d="M146.176 46.4578C146.176 45.8283 146.303 45.2542 146.559 44.7353C146.822 44.2079 147.184 43.7868 147.643 43.4721C148.103 43.1573 148.626 42.9999 149.213 42.9999C149.766 42.9999 150.259 43.1488 150.693 43.4465C151.135 43.7358 151.48 44.0888 151.726 44.5056V40.448H152.594V48.7163C152.594 48.8354 152.619 48.9247 152.671 48.9842C152.722 49.0353 152.798 49.0651 152.9 49.0736V49.7626C152.73 49.7881 152.598 49.7966 152.505 49.7881C152.326 49.7796 152.169 49.7073 152.033 49.5712C151.896 49.4351 151.828 49.2862 151.828 49.1246V48.4739C151.565 48.9077 151.207 49.2522 150.757 49.5074C150.306 49.7626 149.838 49.8902 149.353 49.8902C148.894 49.8902 148.468 49.7966 148.077 49.6095C147.694 49.4223 147.358 49.1671 147.069 48.8439C146.788 48.5206 146.567 48.1549 146.406 47.7466C146.252 47.3297 146.176 46.9002 146.176 46.4578ZM151.726 47.4786V45.4243C151.616 45.1181 151.437 44.8416 151.19 44.5949C150.944 44.3397 150.663 44.1398 150.348 43.9952C150.042 43.8421 149.736 43.7655 149.43 43.7655C149.072 43.7655 148.749 43.8421 148.46 43.9952C148.171 44.1398 147.92 44.3397 147.707 44.5949C147.503 44.8501 147.345 45.1393 147.235 45.4626C147.124 45.7858 147.069 46.1176 147.069 46.4578C147.069 46.8151 147.129 47.1554 147.248 47.4786C147.375 47.8018 147.554 48.0911 147.784 48.3463C148.013 48.593 148.277 48.7843 148.575 48.9205C148.872 49.0566 149.196 49.1246 149.544 49.1246C149.766 49.1246 149.995 49.0821 150.233 48.997C150.472 48.9119 150.697 48.7971 150.91 48.6525C151.131 48.4994 151.314 48.3207 151.458 48.1166C151.603 47.9124 151.692 47.6998 151.726 47.4786Z" fill="#7F7F7F"/>
<path d="M68.5808 24.753C68.6954 25.0969 68.7671 25.3692 68.7957 25.5698C68.8244 25.7704 68.7862 25.9233 68.6811 26.0284C68.576 26.1239 68.3897 26.1812 68.1222 26.2003C67.8547 26.229 67.4869 26.2433 67.0188 26.2433C66.5316 26.2433 66.1495 26.2337 65.8725 26.2146C65.605 26.2051 65.3996 26.1812 65.2563 26.143C65.113 26.0952 65.0127 26.0331 64.9554 25.9567C64.898 25.8803 64.8503 25.78 64.8121 25.6558L63.5654 21.93H56.6011L55.4261 25.5555C55.3879 25.6892 55.3353 25.8039 55.2684 25.8994C55.2111 25.9854 55.1108 26.057 54.9675 26.1143C54.8338 26.1621 54.6379 26.1955 54.38 26.2146C54.1316 26.2337 53.802 26.2433 53.3912 26.2433C52.9518 26.2433 52.6079 26.229 52.3595 26.2003C52.1111 26.1717 51.9392 26.1048 51.8436 25.9997C51.7481 25.8851 51.7147 25.7274 51.7433 25.5268C51.772 25.3262 51.8436 25.0587 51.9583 24.7243L57.6758 8.27378C57.7332 8.11138 57.8 7.98241 57.8765 7.88688C57.9529 7.78179 58.0723 7.70537 58.2347 7.6576C58.4067 7.60028 58.6407 7.56685 58.9369 7.5573C59.233 7.53819 59.6247 7.52864 60.1119 7.52864C60.6755 7.52864 61.1245 7.53819 61.4589 7.5573C61.7933 7.56685 62.0512 7.60028 62.2327 7.6576C62.4238 7.70537 62.5575 7.78179 62.6339 7.88688C62.7199 7.99196 62.7916 8.13526 62.8489 8.31677L68.5808 24.753ZM60.0689 11.1541H60.0546L57.4322 19.0354H62.6913L60.0689 11.1541Z" fill="#EE2742"/>
<path d="M80.6464 23.6353C80.6464 23.8837 80.6369 24.0938 80.6178 24.2658C80.6082 24.4282 80.5891 24.5667 80.5605 24.6814C80.5414 24.796 80.5127 24.8915 80.4745 24.968C80.4458 25.0348 80.3742 25.1256 80.2595 25.2402C80.1449 25.3453 79.9491 25.479 79.672 25.6415C79.395 25.7943 79.0797 25.9328 78.7263 26.057C78.3728 26.1812 77.9859 26.2815 77.5655 26.3579C77.1548 26.4344 76.7296 26.4726 76.2902 26.4726C75.3062 26.4726 74.4321 26.3197 73.6679 26.014C72.9132 25.7083 72.2779 25.2593 71.762 24.667C71.2461 24.0652 70.8544 23.3344 70.587 22.4746C70.329 21.6148 70.2001 20.6308 70.2001 19.5226C70.2001 18.2425 70.3577 17.1391 70.6729 16.2125C70.9977 15.2763 71.4467 14.5025 72.0199 13.891C72.5931 13.2796 73.2714 12.8259 74.0548 12.5297C74.8381 12.2336 75.6979 12.0855 76.6341 12.0855C77.0162 12.0855 77.3888 12.1189 77.7518 12.1858C78.1244 12.2527 78.4683 12.3434 78.7836 12.4581C79.1084 12.5727 79.395 12.7017 79.6434 12.845C79.9013 12.9883 80.0828 13.1125 80.1879 13.2176C80.293 13.3226 80.3646 13.4134 80.4028 13.4898C80.4506 13.5567 80.484 13.6474 80.5031 13.7621C80.5318 13.8767 80.5509 14.02 80.5605 14.192C80.5796 14.3544 80.5891 14.555 80.5891 14.7938C80.5891 15.3479 80.5414 15.7396 80.4458 15.9689C80.3503 16.1886 80.2261 16.2984 80.0733 16.2984C79.9108 16.2984 79.7389 16.2316 79.5574 16.0978C79.3759 15.9641 79.1609 15.816 78.9125 15.6536C78.6642 15.4912 78.368 15.3431 78.0241 15.2094C77.6802 15.0756 77.2694 15.0088 76.7917 15.0088C75.8555 15.0088 75.139 15.3718 74.6423 16.0978C74.1455 16.8143 73.8971 17.8699 73.8971 19.2647C73.8971 19.9525 73.9592 20.5592 74.0834 21.0846C74.2076 21.61 74.3891 22.0495 74.6279 22.4029C74.8763 22.7564 75.182 23.0239 75.545 23.2054C75.9176 23.3773 76.3475 23.4633 76.8347 23.4633C77.3315 23.4633 77.7566 23.3917 78.1101 23.2484C78.4731 23.0955 78.7884 22.9284 79.0558 22.7468C79.3233 22.5653 79.5478 22.4029 79.7293 22.2596C79.9108 22.1068 80.0637 22.0304 80.1879 22.0304C80.2739 22.0304 80.3455 22.0542 80.4028 22.102C80.4602 22.1498 80.5031 22.2405 80.5318 22.3743C80.57 22.4985 80.5987 22.6609 80.6178 22.8615C80.6369 23.0621 80.6464 23.32 80.6464 23.6353Z" fill="#EE2742"/>
<path d="M95.3918 30.7428C95.3918 30.8384 95.3631 30.9244 95.3058 31.0008C95.2485 31.0772 95.1529 31.1393 95.0192 31.1871C94.8854 31.2444 94.7039 31.2874 94.4747 31.316C94.2454 31.3447 93.954 31.359 93.6005 31.359C93.2471 31.359 92.9557 31.3447 92.7264 31.316C92.4972 31.2874 92.3109 31.2444 92.1676 31.1871C92.0338 31.1393 91.9383 31.0772 91.881 31.0008C91.8332 30.9244 91.8093 30.8384 91.8093 30.7428V24.667C91.4654 24.9823 91.1311 25.2593 90.8062 25.4982C90.4814 25.7274 90.1566 25.9185 89.8318 26.0713C89.507 26.2146 89.1726 26.3197 88.8287 26.3866C88.4848 26.4535 88.1218 26.4869 87.7397 26.4869C86.8035 26.4869 86.0058 26.3006 85.3466 25.928C84.6874 25.5459 84.1477 25.0348 83.7273 24.3948C83.3166 23.7547 83.0156 23.0096 82.8246 22.1593C82.6335 21.2995 82.538 20.3968 82.538 19.451C82.538 18.3142 82.6622 17.292 82.9105 16.3844C83.1589 15.4769 83.5219 14.7031 83.9996 14.063C84.4773 13.4229 85.0648 12.931 85.7622 12.587C86.4595 12.2431 87.2668 12.0712 88.1839 12.0712C88.5374 12.0712 88.8765 12.1094 89.2013 12.1858C89.5261 12.2527 89.8509 12.3769 90.1757 12.5584C90.5005 12.7303 90.8349 12.9596 91.1788 13.2462C91.5323 13.5233 91.9192 13.8672 92.3395 14.278V12.888C92.3395 12.7924 92.3634 12.7112 92.4112 12.6444C92.4685 12.5679 92.5545 12.5058 92.6691 12.4581C92.7933 12.4103 92.9509 12.3769 93.142 12.3578C93.3331 12.3291 93.5814 12.3148 93.8871 12.3148C94.1737 12.3148 94.4126 12.3291 94.6036 12.3578C94.8042 12.3769 94.9619 12.4103 95.0765 12.4581C95.1912 12.5058 95.2724 12.5679 95.3201 12.6444C95.3679 12.7112 95.3918 12.7924 95.3918 12.888V30.7428ZM91.8093 17.1296C91.2935 16.48 90.7967 15.9832 90.319 15.6393C89.8509 15.2954 89.3589 15.1234 88.8431 15.1234C88.375 15.1234 87.969 15.2428 87.625 15.4817C87.2907 15.7109 87.0184 16.0214 86.8082 16.4131C86.6076 16.8048 86.4548 17.2442 86.3497 17.7314C86.2542 18.2091 86.2064 18.7011 86.2064 19.2074C86.2064 19.7424 86.2494 20.2678 86.3354 20.7837C86.4213 21.29 86.5599 21.739 86.7509 22.1307C86.9515 22.5223 87.2142 22.8376 87.5391 23.0764C87.8639 23.3153 88.2747 23.4347 88.7714 23.4347C89.0198 23.4347 89.2586 23.4012 89.4879 23.3344C89.7267 23.2579 89.9656 23.1385 90.2044 22.9761C90.4528 22.8137 90.7059 22.6035 90.9639 22.3456C91.2218 22.0781 91.5036 21.7533 91.8093 21.3712V17.1296Z" fill="#EE2742"/>
<path d="M111.155 25.6701C111.155 25.7656 111.131 25.8516 111.083 25.928C111.035 25.9949 110.949 26.0522 110.825 26.1C110.71 26.1478 110.553 26.1812 110.352 26.2003C110.161 26.229 109.917 26.2433 109.621 26.2433C109.306 26.2433 109.048 26.229 108.847 26.2003C108.656 26.1812 108.503 26.1478 108.389 26.1C108.274 26.0522 108.193 25.9949 108.145 25.928C108.097 25.8516 108.074 25.7656 108.074 25.6701V24.1941C107.367 24.9584 106.645 25.5316 105.91 25.9137C105.184 26.2958 104.429 26.4869 103.646 26.4869C102.767 26.4869 102.026 26.3436 101.425 26.057C100.832 25.7704 100.35 25.3787 99.9773 24.882C99.6143 24.3852 99.3516 23.812 99.1892 23.1624C99.0363 22.5032 98.9599 21.6864 98.9599 20.712V12.888C98.9599 12.7924 98.9838 12.7112 99.0315 12.6444C99.0888 12.5679 99.1844 12.5058 99.3181 12.4581C99.4614 12.4103 99.6477 12.3769 99.877 12.3578C100.116 12.3291 100.407 12.3148 100.751 12.3148C101.105 12.3148 101.396 12.3291 101.625 12.3578C101.854 12.3769 102.036 12.4103 102.17 12.4581C102.313 12.5058 102.413 12.5679 102.471 12.6444C102.528 12.7112 102.557 12.7924 102.557 12.888V20.1102C102.557 20.7789 102.6 21.29 102.686 21.6434C102.772 21.9969 102.901 22.3026 103.073 22.5606C103.254 22.8089 103.479 23.0048 103.746 23.1481C104.023 23.2818 104.343 23.3487 104.706 23.3487C105.165 23.3487 105.623 23.1815 106.082 22.8471C106.55 22.5128 107.047 22.0256 107.572 21.3855V12.888C107.572 12.7924 107.596 12.7112 107.644 12.6444C107.701 12.5679 107.797 12.5058 107.93 12.4581C108.074 12.4103 108.26 12.3769 108.489 12.3578C108.718 12.3291 109.01 12.3148 109.363 12.3148C109.717 12.3148 110.008 12.3291 110.237 12.3578C110.467 12.3769 110.648 12.4103 110.782 12.4581C110.916 12.5058 111.011 12.5679 111.069 12.6444C111.126 12.7112 111.155 12.7924 111.155 12.888V25.6701Z" fill="#EE2742"/>
<path d="M118.405 25.6701C118.405 25.7656 118.377 25.8516 118.319 25.928C118.262 25.9949 118.162 26.0522 118.018 26.1C117.885 26.1478 117.703 26.1812 117.474 26.2003C117.245 26.229 116.953 26.2433 116.6 26.2433C116.246 26.2433 115.955 26.229 115.726 26.2003C115.496 26.1812 115.31 26.1478 115.167 26.1C115.033 26.0522 114.938 25.9949 114.88 25.928C114.823 25.8516 114.794 25.7656 114.794 25.6701V12.9166C114.794 12.8211 114.823 12.7399 114.88 12.673C114.938 12.5966 115.033 12.5345 115.167 12.4867C115.31 12.4294 115.496 12.3864 115.726 12.3578C115.955 12.3291 116.246 12.3148 116.6 12.3148C116.953 12.3148 117.245 12.3291 117.474 12.3578C117.703 12.3864 117.885 12.4294 118.018 12.4867C118.162 12.5345 118.262 12.5966 118.319 12.673C118.377 12.7399 118.405 12.8211 118.405 12.9166V25.6701ZM118.678 8.56038C118.678 9.28642 118.53 9.78796 118.233 10.065C117.937 10.342 117.388 10.4806 116.585 10.4806C115.773 10.4806 115.224 10.3468 114.938 10.0793C114.661 9.81184 114.522 9.32941 114.522 8.63203C114.522 7.90599 114.665 7.40444 114.952 7.1274C115.248 6.84081 115.802 6.69751 116.614 6.69751C117.417 6.69751 117.961 6.83603 118.248 7.11307C118.534 7.38056 118.678 7.863 118.678 8.56038Z" fill="#EE2742"/>
<path d="M131.016 22.059C131.016 22.7851 130.877 23.4251 130.6 23.9792C130.332 24.5333 129.95 24.9966 129.454 25.3692C128.957 25.7418 128.369 26.0188 127.691 26.2003C127.013 26.3914 126.277 26.4869 125.484 26.4869C125.007 26.4869 124.548 26.4487 124.109 26.3723C123.679 26.3054 123.292 26.2194 122.948 26.1143C122.604 25.9997 122.317 25.8851 122.088 25.7704C121.859 25.6558 121.692 25.5507 121.587 25.4552C121.481 25.3501 121.4 25.1925 121.343 24.9823C121.286 24.7626 121.257 24.4425 121.257 24.0222C121.257 23.7451 121.267 23.5254 121.286 23.363C121.305 23.1911 121.333 23.0573 121.372 22.9618C121.41 22.8567 121.458 22.7898 121.515 22.7612C121.572 22.723 121.644 22.7039 121.73 22.7039C121.835 22.7039 121.988 22.7659 122.188 22.8901C122.399 23.0048 122.657 23.1337 122.962 23.277C123.268 23.4203 123.621 23.5541 124.023 23.6783C124.433 23.8025 124.897 23.8646 125.413 23.8646C125.737 23.8646 126.024 23.8311 126.272 23.7643C126.53 23.6974 126.75 23.6019 126.932 23.4777C127.123 23.3535 127.266 23.1958 127.361 23.0048C127.457 22.8137 127.505 22.594 127.505 22.3456C127.505 22.059 127.414 21.8154 127.232 21.6148C127.061 21.4046 126.826 21.2231 126.53 21.0703C126.244 20.9174 125.914 20.7741 125.542 20.6404C125.179 20.5066 124.801 20.3585 124.41 20.1961C124.027 20.0337 123.65 19.8475 123.277 19.6373C122.914 19.4271 122.585 19.1692 122.289 18.8635C122.002 18.5578 121.768 18.19 121.587 17.7601C121.415 17.3302 121.329 16.8143 121.329 16.2125C121.329 15.6011 121.448 15.0422 121.687 14.5359C121.926 14.02 122.27 13.5806 122.719 13.2176C123.168 12.8545 123.712 12.5727 124.352 12.3721C125.002 12.1715 125.728 12.0712 126.53 12.0712C126.932 12.0712 127.318 12.0998 127.691 12.1571C128.073 12.2145 128.417 12.2861 128.723 12.3721C129.028 12.4581 129.286 12.5536 129.497 12.6587C129.707 12.7542 129.855 12.8402 129.941 12.9166C130.036 12.9835 130.103 13.0551 130.141 13.1316C130.18 13.1984 130.208 13.2844 130.227 13.3895C130.247 13.485 130.261 13.6092 130.27 13.7621C130.29 13.9054 130.299 14.0869 130.299 14.3066C130.299 14.5645 130.29 14.7747 130.27 14.9371C130.261 15.0995 130.237 15.2285 130.199 15.324C130.17 15.4196 130.127 15.4864 130.07 15.5246C130.012 15.5533 129.946 15.5676 129.869 15.5676C129.783 15.5676 129.649 15.5199 129.468 15.4243C129.286 15.3192 129.057 15.2094 128.78 15.0947C128.513 14.9801 128.197 14.875 127.834 14.7795C127.481 14.6744 127.075 14.6219 126.616 14.6219C126.292 14.6219 126.01 14.6553 125.771 14.7222C125.532 14.789 125.336 14.8846 125.183 15.0088C125.03 15.133 124.916 15.281 124.839 15.453C124.763 15.6154 124.725 15.7921 124.725 15.9832C124.725 16.2793 124.816 16.5277 124.997 16.7283C125.179 16.929 125.417 17.1057 125.714 17.2585C126.01 17.4114 126.344 17.5547 126.717 17.6884C127.099 17.8222 127.481 17.9703 127.863 18.1327C128.255 18.2855 128.637 18.467 129.009 18.6772C129.392 18.8874 129.731 19.1453 130.027 19.451C130.323 19.7567 130.562 20.1245 130.743 20.5544C130.925 20.9747 131.016 21.4763 131.016 22.059Z" fill="#EE2742"/>
<path d="M154.072 25.6701C154.072 25.7656 154.043 25.8516 153.986 25.928C153.929 25.9949 153.833 26.0522 153.7 26.1C153.566 26.1478 153.384 26.1812 153.155 26.2003C152.926 26.229 152.634 26.2433 152.281 26.2433C151.918 26.2433 151.622 26.229 151.392 26.2003C151.163 26.1812 150.977 26.1478 150.834 26.1C150.7 26.0522 150.604 25.9949 150.547 25.928C150.499 25.8516 150.475 25.7656 150.475 25.6701V18.0897C150.475 17.6598 150.432 17.2681 150.346 16.9146C150.27 16.5612 150.146 16.2602 149.974 16.0119C149.811 15.7539 149.601 15.5581 149.343 15.4243C149.095 15.281 148.794 15.2094 148.441 15.2094C148.011 15.2094 147.576 15.3766 147.137 15.7109C146.697 16.0453 146.219 16.5325 145.704 17.1726V25.6701C145.704 25.7656 145.675 25.8516 145.618 25.928C145.56 25.9949 145.46 26.0522 145.317 26.1C145.183 26.1478 145.001 26.1812 144.772 26.2003C144.543 26.229 144.256 26.2433 143.912 26.2433C143.559 26.2433 143.267 26.229 143.038 26.2003C142.809 26.1812 142.623 26.1478 142.479 26.1C142.346 26.0522 142.25 25.9949 142.193 25.928C142.135 25.8516 142.107 25.7656 142.107 25.6701V18.0897C142.107 17.6598 142.064 17.2681 141.978 16.9146C141.901 16.5612 141.782 16.2602 141.62 16.0119C141.457 15.7539 141.247 15.5581 140.989 15.4243C140.731 15.281 140.43 15.2094 140.086 15.2094C139.647 15.2094 139.207 15.3766 138.768 15.7109C138.329 16.0453 137.856 16.5325 137.349 17.1726V25.6701C137.349 25.7656 137.321 25.8516 137.263 25.928C137.206 25.9949 137.106 26.0522 136.962 26.1C136.829 26.1478 136.647 26.1812 136.418 26.2003C136.189 26.229 135.897 26.2433 135.544 26.2433C135.19 26.2433 134.899 26.229 134.67 26.2003C134.44 26.1812 134.254 26.1478 134.111 26.1C133.977 26.0522 133.882 25.9949 133.824 25.928C133.767 25.8516 133.738 25.7656 133.738 25.6701V12.888C133.738 12.7924 133.762 12.7112 133.81 12.6444C133.858 12.5679 133.944 12.5058 134.068 12.4581C134.192 12.4103 134.35 12.3769 134.541 12.3578C134.741 12.3291 134.99 12.3148 135.286 12.3148C135.592 12.3148 135.845 12.3291 136.045 12.3578C136.246 12.3769 136.399 12.4103 136.504 12.4581C136.618 12.5058 136.7 12.5679 136.747 12.6444C136.795 12.7112 136.819 12.7924 136.819 12.888V14.3639C137.526 13.5997 138.228 13.0265 138.926 12.6444C139.633 12.2622 140.368 12.0712 141.132 12.0712C141.658 12.0712 142.131 12.1285 142.551 12.2431C142.971 12.3482 143.344 12.5058 143.669 12.716C144.003 12.9166 144.29 13.1602 144.529 13.4468C144.767 13.7334 144.968 14.0535 145.13 14.4069C145.512 13.9961 145.885 13.6427 146.248 13.3465C146.621 13.0504 146.984 12.8115 147.337 12.63C147.7 12.439 148.058 12.3004 148.412 12.2145C148.775 12.1189 149.143 12.0712 149.515 12.0712C150.366 12.0712 151.082 12.2145 151.665 12.5011C152.247 12.7877 152.716 13.1793 153.069 13.6761C153.432 14.1633 153.69 14.7365 153.843 15.3957C153.996 16.0548 154.072 16.7522 154.072 17.4878V25.6701Z" fill="#EE2742"/>
<path d="M37.943 13.6309L44.021 7.55287C39.3545 2.88632 32.9078 0 25.7869 0C11.5452 0 0 11.5452 0 25.7869C0 32.9078 2.88632 39.3545 7.55287 44.021L13.6309 37.943C10.5198 34.832 8.59563 30.5341 8.59563 25.7869C8.59563 16.2924 16.2924 8.59563 25.7869 8.59563C30.5341 8.59563 34.832 10.5198 37.943 13.6309Z" fill="#EE2742"/>
<path d="M31.865 19.7089L19.7089 31.865C18.1534 30.3095 17.1913 28.1605 17.1913 25.7869C17.1913 21.0396 21.0396 17.1913 25.7869 17.1913C28.1605 17.1913 30.3095 18.1534 31.865 19.7089Z" fill="#EE2742"/>
<path d="M34.3825 50.1064V25.7869C34.3825 23.4134 33.4204 21.2644 31.865 19.7089L37.943 13.6309C41.054 16.7419 42.9781 21.0397 42.9781 25.7869V45.0076C40.4979 47.2275 37.5854 48.9744 34.3825 50.1064Z" fill="#EE2742"/>
<path d="M25.7869 42.9782C21.0397 42.9782 16.7419 41.054 13.6309 37.943L19.7089 31.865C21.2644 33.4204 23.4133 34.3826 25.7869 34.3826C27.424 34.3826 28.9542 33.9249 30.2566 33.1305V42.3914C28.8313 42.7741 27.3329 42.9782 25.7869 42.9782Z" fill="#EE2742"/>
</svg>
