<svg width="26" height="26" viewBox="0 0 26 26" fill="none" xmlns="http://www.w3.org/2000/svg">
<path fill-rule="evenodd" clip-rule="evenodd" d="M0.59375 2.66667C0.59375 2.1169 0.812146 1.58964 1.20089 1.2009C1.58964 0.812149 2.1169 0.593753 2.66667 0.593753H23.3304C23.6029 0.593308 23.8727 0.646605 24.1246 0.750594C24.3764 0.854582 24.6052 1.00722 24.798 1.19977C24.9907 1.39231 25.1436 1.62099 25.2479 1.8727C25.3522 2.12441 25.4057 2.39422 25.4056 2.66667V23.3304C25.4059 23.6029 25.3525 23.8728 25.2483 24.1247C25.1442 24.3765 24.9915 24.6053 24.7989 24.7981C24.6062 24.9908 24.3775 25.1437 24.1257 25.2479C23.8739 25.3522 23.6041 25.4057 23.3316 25.4056H2.66667C2.39435 25.4056 2.12471 25.3519 1.87314 25.2477C1.62156 25.1435 1.393 24.9907 1.20049 24.7981C1.00799 24.6054 0.855325 24.3768 0.751218 24.1252C0.64711 23.8735 0.593602 23.6039 0.59375 23.3316V2.66667ZM10.4147 10.0538H13.7745V11.741C14.2594 10.7711 15.5 9.8982 17.3643 9.8982C20.9383 9.8982 21.7853 11.8301 21.7853 15.3748V21.941H18.1684V16.1824C18.1684 14.1636 17.6835 13.0245 16.4519 13.0245C14.7433 13.0245 14.0327 14.2527 14.0327 16.1824V21.941H10.4147V10.0538ZM4.21177 21.7865H7.82979V9.8982H4.21177V21.7853V21.7865ZM8.34745 6.02078C8.35427 6.33056 8.29915 6.63858 8.18532 6.92677C8.07148 7.21495 7.90124 7.4775 7.68456 7.699C7.46789 7.9205 7.20915 8.09649 6.92354 8.21664C6.63793 8.33679 6.3312 8.39868 6.02134 8.39868C5.71149 8.39868 5.40475 8.33679 5.11914 8.21664C4.83353 8.09649 4.5748 7.9205 4.35812 7.699C4.14145 7.4775 3.9712 7.21495 3.85737 6.92677C3.74353 6.63858 3.68841 6.33056 3.69523 6.02078C3.70862 5.41273 3.95957 4.83409 4.39434 4.40878C4.82912 3.98348 5.41314 3.74533 6.02134 3.74533C6.62954 3.74533 7.21357 3.98348 7.64834 4.40878C8.08311 4.83409 8.33406 5.41273 8.34745 6.02078V6.02078Z" fill="#EE2742"/>
</svg>
