<?xml version="1.0" encoding="utf-8"?><svg viewBox="0 0 156 52" xmlns="http://www.w3.org/2000/svg" xmlns:xlink="http://www.w3.org/1999/xlink"><style>:root>svg{display:none}:root>svg:target{display:block}</style><svg viewBox="0 0 12 20" id="breadcrums-svg" xmlns="http://www.w3.org/2000/svg"><path d="M2 18l8-8-8-8"/></svg><svg viewBox="0 0 36 28" id="burger" xmlns="http://www.w3.org/2000/svg"><path d="M10 14h24M18 26h16M2 2h32"/></svg><svg viewBox="0 0 24 25" id="expertise-img" xmlns="http://www.w3.org/2000/svg"><path d="M6 18.5l12-12M9 6.5h9v9"/></svg><svg viewBox="0 0 24 28" id="file" xmlns="http://www.w3.org/2000/svg"><path d="M8.333 10v6A3.333 3.333 0 1015 16V8.667a6.666 6.666 0 10-13.334 0V16a10 10 0 1020 0V4.667"/></svg><svg viewBox="0 0 24 24" id="filter" xmlns="http://www.w3.org/2000/svg"><path d="M9 7a2 2 0 100-4 2 2 0 000 4zM15 14a2 2 0 100-4 2 2 0 000 4zM9 21a2 2 0 100-4 2 2 0 000 4zM7 5H3M21 12h-4M7 19H3M11 5h10M3 12h10M11 19h10"/></svg><svg viewBox="0 0 26 26" id="fn" xmlns="http://www.w3.org/2000/svg"><path d="M24.437.568H1.562a.994.994 0 00-.995.994v22.876c0 .55.445.994.995.994h22.875c.55 0 .995-.444.995-.994V1.562a.994.994 0 00-.995-.994zm-2.872 7.257H19.58c-1.557 0-1.858.74-1.858 1.828v2.396h3.717l-.485 3.751h-3.232v9.632h-3.876v-9.628h-3.242v-3.755h3.242V9.283c0-3.21 1.961-4.96 4.827-4.96 1.374 0 2.552.102 2.897.148v3.354h-.003z"/></svg><svg viewBox="0 0 156 52" id="header-logo-mobile" xmlns="http://www.w3.org/2000/svg"><path d="M91.139 42.4a2.166 2.166 0 00-.447-.383 2.833 2.833 0 00-.574-.306 4.067 4.067 0 00-.689-.204 3.646 3.646 0 00-.766-.076c-.79 0-1.373.153-1.748.459-.365.298-.548.706-.548 1.225 0 .357.085.638.255.842.178.204.455.37.83.498.374.127.85.259 1.428.395.647.136 1.204.298 1.672.485.468.187.83.442 1.084.766.256.314.383.744.383 1.288 0 .417-.08.779-.242 1.085a2.161 2.161 0 01-.677.765c-.289.205-.633.358-1.033.46-.4.093-.838.14-1.314.14-.468 0-.919-.047-1.353-.14a5.874 5.874 0 01-1.212-.434 5.03 5.03 0 01-1.072-.74l.447-.727c.161.17.353.331.574.484a4.967 4.967 0 001.646.676c.323.06.655.09.995.09.723 0 1.285-.132 1.684-.395.409-.264.613-.655.613-1.174 0-.375-.102-.672-.306-.894-.204-.23-.51-.416-.919-.561-.408-.145-.91-.285-1.506-.421a10.306 10.306 0 01-1.594-.485c-.434-.179-.762-.413-.983-.702-.213-.297-.319-.689-.319-1.174 0-.561.136-1.033.408-1.416.281-.391.664-.685 1.149-.88.485-.204 1.042-.307 1.671-.307.4 0 .77.043 1.11.128a3.905 3.905 0 011.786.919l-.433.714zM101.586 43.115h.855l-2.858 6.648h-.753l-1.39-3.305-1.379 3.305h-.752l-2.858-6.648h.842l2.424 5.754 1.225-2.998-1.123-2.744h.778l.843 2.157.854-2.157h.766l-1.11 2.744 1.225 2.998 2.411-5.754zM103.596 49.763v-6.648h.867v6.648h-.867zm0-8.039v-1.276h.867v1.276h-.867zM109.564 49.444a4.9 4.9 0 00-.319.14 2.862 2.862 0 01-1.186.255c-.247 0-.481-.047-.702-.14a1.172 1.172 0 01-.51-.421 1.277 1.277 0 01-.192-.715v-4.76h-.918v-.688h.918v-2.246h.868v2.246h1.531v.689h-1.531v4.517c.017.238.102.417.255.536a.904.904 0 00.549.178c.238 0 .455-.038.65-.114.196-.086.315-.145.358-.18l.229.703zM110.087 49.176l4.453-5.41h-4.351v-.651h5.334v.587l-4.428 5.41h4.415v.65h-5.423v-.586zM119.663 49.89a3.27 3.27 0 01-1.327-.268 3.377 3.377 0 01-1.06-.753 3.68 3.68 0 01-.701-1.11 3.666 3.666 0 01-.243-1.34c0-.62.141-1.19.421-1.71.29-.518.685-.93 1.187-1.237a3.151 3.151 0 011.71-.472c.655 0 1.225.157 1.71.472.493.315.88.732 1.161 1.25.28.51.421 1.072.421 1.685v.204c0 .06-.004.106-.013.14h-5.691c.043.477.175.902.396 1.276.229.366.523.66.88.88.366.213.762.32 1.187.32.434 0 .842-.11 1.225-.332.391-.221.663-.51.816-.868l.753.204c-.136.315-.344.6-.625.855a3.08 3.08 0 01-.995.6 3.526 3.526 0 01-1.212.204zm-2.45-3.764h4.912a2.724 2.724 0 00-.395-1.276 2.363 2.363 0 00-.881-.855 2.275 2.275 0 00-1.186-.319c-.434 0-.83.106-1.187.32a2.462 2.462 0 00-.881.867 2.788 2.788 0 00-.382 1.263zM127.598 43.88a2.772 2.772 0 00-1.531.485c-.434.306-.74.727-.919 1.263v4.135h-.868v-6.648h.817v1.595c.23-.468.532-.847.906-1.136.383-.29.787-.45 1.212-.485.085-.008.158-.012.217-.012a.88.88 0 01.166.012v.791zM128.792 40.448h.868v7.809c0 .332.059.549.178.65.12.103.264.154.434.154.153 0 .306-.017.46-.051.153-.034.285-.068.395-.102l.153.701a2.85 2.85 0 01-.599.166c-.23.043-.43.064-.6.064-.391 0-.706-.115-.944-.344-.23-.23-.345-.545-.345-.945v-8.102zM131.694 47.849c0-.417.12-.774.358-1.072.238-.306.565-.54.982-.702.426-.17.915-.255 1.468-.255.323 0 .659.025 1.008.076.348.051.659.128.931.23v-.561c0-.562-.166-1.008-.498-1.34-.331-.332-.791-.498-1.378-.498-.357 0-.71.068-1.059.204a5.11 5.11 0 00-1.071.575l-.332-.613a5.4 5.4 0 011.276-.663c.417-.153.842-.23 1.276-.23.816 0 1.463.234 1.939.702.477.468.715 1.114.715 1.94v3.074c0 .12.025.209.076.268.051.051.132.081.243.09v.689a7.288 7.288 0 00-.243.025.45.45 0 01-.153 0c-.212-.008-.374-.076-.485-.204a.677.677 0 01-.178-.408l-.013-.485c-.298.383-.685.68-1.161.893a3.664 3.664 0 01-1.455.306 2.51 2.51 0 01-1.161-.268 2.184 2.184 0 01-.804-.74 1.987 1.987 0 01-.281-1.033zm4.454.51c.093-.12.165-.234.217-.345a.715.715 0 00.076-.293v-.97a5.262 5.262 0 00-1.837-.344c-.621 0-1.123.123-1.506.37-.383.246-.574.582-.574 1.008 0 .247.064.48.191.702.128.212.315.39.562.535.246.137.536.205.867.205.417 0 .804-.081 1.161-.243.366-.161.647-.37.843-.625zM144.772 49.763h-.867V46.05c0-.783-.115-1.353-.345-1.71-.23-.366-.591-.549-1.085-.549-.34 0-.676.085-1.008.255a2.813 2.813 0 00-.88.676c-.247.281-.425.605-.536.97v4.07h-.868v-6.647h.792v1.505a2.89 2.89 0 01.701-.842c.29-.246.617-.438.983-.574a3.23 3.23 0 011.135-.204c.366 0 .677.068.932.204.255.136.459.332.612.587.153.247.264.549.332.906.068.349.102.74.102 1.174v3.892zM146.176 46.458c0-.63.127-1.204.383-1.723a3.268 3.268 0 011.084-1.263c.46-.315.983-.472 1.57-.472.553 0 1.046.149 1.48.447.442.289.787.642 1.033 1.059v-4.058h.868v8.268c0 .12.025.209.077.268.051.051.127.081.229.09v.689c-.17.025-.302.034-.395.025a.697.697 0 01-.472-.217.62.62 0 01-.205-.446v-.651a2.906 2.906 0 01-1.071 1.033 2.814 2.814 0 01-1.404.383 2.92 2.92 0 01-1.276-.28 3.265 3.265 0 01-1.008-.766 3.763 3.763 0 01-.663-1.097 3.69 3.69 0 01-.23-1.29zm5.55 1.02v-2.054a2.233 2.233 0 00-.536-.83 2.762 2.762 0 00-.842-.599 2.036 2.036 0 00-.918-.23c-.358 0-.681.077-.97.23-.289.145-.54.345-.753.6a2.846 2.846 0 00-.472.868 3.043 3.043 0 00.013 2.016c.127.323.306.612.536.867.229.247.493.438.791.575.297.136.621.204.969.204.222 0 .451-.043.689-.128.239-.085.464-.2.677-.344.221-.154.404-.332.548-.536.145-.205.234-.417.268-.638zM68.58 24.753c.115.344.187.616.216.817.028.2-.01.353-.115.458-.105.096-.291.153-.559.172-.267.029-.635.043-1.103.043-.487 0-.87-.01-1.147-.028a2.94 2.94 0 01-.616-.072c-.143-.048-.243-.11-.3-.186a.978.978 0 01-.144-.301l-1.247-3.726h-6.964l-1.175 3.625c-.038.134-.09.249-.158.344a.628.628 0 01-.3.215c-.134.048-.33.081-.588.1-.248.02-.578.03-.989.03-.44 0-.783-.015-1.032-.044-.248-.028-.42-.095-.515-.2-.096-.115-.13-.273-.1-.473.028-.2.1-.468.214-.803l5.718-16.45c.057-.163.124-.292.2-.387a.652.652 0 01.359-.23 2.56 2.56 0 01.702-.1c.296-.019.688-.028 1.175-.028.563 0 1.012.01 1.347.028.334.01.592.043.774.1.19.048.325.125.4.23.087.105.159.248.216.43l5.732 16.436zM60.07 11.154h-.014l-2.623 7.881h5.26l-2.623-7.88zM80.646 23.635c0 .249-.01.459-.028.63-.01.163-.029.302-.057.416a1.02 1.02 0 01-.087.287c-.028.067-.1.158-.215.272-.114.105-.31.239-.587.402a6.248 6.248 0 01-.946.415 7.605 7.605 0 01-2.436.416c-.984 0-1.858-.153-2.622-.459a4.952 4.952 0 01-1.906-1.347c-.516-.602-.908-1.333-1.175-2.192-.258-.86-.387-1.844-.387-2.952 0-1.28.158-2.384.473-3.31.325-.937.774-1.71 1.347-2.322a5.345 5.345 0 012.035-1.361c.783-.296 1.643-.444 2.58-.444.381 0 .754.033 1.117.1.372.067.716.157 1.032.272.324.115.611.244.86.387.257.143.439.268.544.373.105.105.177.195.215.272a.649.649 0 01.1.272c.029.115.048.258.058.43.019.162.028.363.028.602 0 .554-.048.946-.143 1.175-.096.22-.22.33-.373.33-.162 0-.334-.067-.516-.201a14.217 14.217 0 00-.645-.444 4.805 4.805 0 00-.888-.445c-.344-.133-.755-.2-1.232-.2-.936 0-1.653.363-2.15 1.089-.496.716-.745 1.772-.745 3.167 0 .688.062 1.294.186 1.82.125.525.306.964.545 1.318.248.353.554.62.917.802.373.172.802.258 1.29.258.497 0 .922-.071 1.275-.215.363-.152.678-.32.946-.501.267-.182.492-.344.673-.487.182-.153.335-.23.459-.23.086 0 .157.024.215.072.057.048.1.139.129.272.038.125.067.287.086.488.019.2.028.458.028.773zM95.392 30.743a.42.42 0 01-.086.258.6.6 0 01-.287.186c-.134.057-.315.1-.544.129a7.27 7.27 0 01-.874.043 7.27 7.27 0 01-.875-.043 2.304 2.304 0 01-.558-.129.599.599 0 01-.287-.186.476.476 0 01-.072-.258v-6.076c-.344.315-.678.592-1.003.831-.325.23-.65.42-.974.573-.325.144-.66.249-1.003.316-.344.066-.707.1-1.09.1-.936 0-1.733-.186-2.392-.559a4.782 4.782 0 01-1.62-1.533c-.41-.64-.711-1.385-.902-2.236a12.452 12.452 0 01-.287-2.708c0-1.137.124-2.159.373-3.067.248-.907.61-1.68 1.089-2.321a4.855 4.855 0 011.762-1.476c.698-.344 1.505-.516 2.422-.516.353 0 .692.038 1.017.115.325.067.65.19.975.372.325.172.659.402 1.003.688.353.277.74.621 1.16 1.032v-1.39c0-.096.024-.177.072-.244a.6.6 0 01.258-.186c.124-.048.282-.081.473-.1.191-.029.44-.043.745-.043.287 0 .526.014.717.043.2.019.358.052.472.1.115.048.196.11.244.186a.408.408 0 01.072.244v17.855zM91.809 17.13c-.516-.65-1.012-1.147-1.49-1.49-.468-.345-.96-.517-1.476-.517-.468 0-.874.12-1.218.359-.334.229-.607.54-.817.931-.2.392-.353.831-.458 1.318-.096.478-.144.97-.144 1.476 0 .535.043 1.06.13 1.577.085.506.224.955.415 1.347.2.391.463.707.788.945.325.24.736.359 1.232.359.249 0 .488-.034.717-.1.239-.077.478-.197.716-.359.249-.162.502-.372.76-.63.258-.268.54-.593.845-.975V17.13zM111.155 25.67a.475.475 0 01-.072.258.554.554 0 01-.258.172 1.681 1.681 0 01-.473.1 5.083 5.083 0 01-.731.043c-.315 0-.573-.014-.774-.043a1.635 1.635 0 01-.458-.1.552.552 0 01-.244-.172.474.474 0 01-.071-.258v-1.476c-.707.764-1.429 1.338-2.164 1.72a4.801 4.801 0 01-2.264.573c-.879 0-1.62-.143-2.221-.43a3.893 3.893 0 01-1.448-1.175 4.892 4.892 0 01-.788-1.72c-.153-.659-.23-1.476-.23-2.45v-7.824c0-.096.025-.177.072-.244a.598.598 0 01.287-.186c.143-.048.33-.081.559-.1.239-.029.53-.043.874-.043.354 0 .645.014.874.043.229.019.411.052.545.1.143.048.243.11.301.186a.363.363 0 01.086.244v7.222c0 .669.043 1.18.129 1.533.086.354.215.66.387.918.181.248.406.444.673.587.277.134.597.2.96.2.459 0 .917-.166 1.376-.5.468-.335.965-.822 1.49-1.462v-8.498c0-.096.024-.177.072-.244a.598.598 0 01.286-.186c.144-.048.33-.081.559-.1a7.27 7.27 0 01.874-.043c.354 0 .645.014.874.043.23.019.411.052.545.1.134.048.229.11.287.186a.363.363 0 01.086.244V25.67zM118.405 25.67a.415.415 0 01-.086.258c-.057.067-.157.124-.301.172a2.211 2.211 0 01-.544.1 7.27 7.27 0 01-.874.043c-.354 0-.645-.014-.874-.043a2.446 2.446 0 01-.559-.1.673.673 0 01-.287-.172.421.421 0 01-.086-.258V12.917c0-.096.029-.177.086-.244a.603.603 0 01.287-.186c.143-.058.329-.1.559-.13.229-.028.52-.042.874-.042.353 0 .645.014.874.043.229.028.411.071.544.129.144.047.244.11.301.186a.358.358 0 01.086.244V25.67zm.273-17.11c0 .726-.148 1.228-.445 1.505-.296.277-.845.416-1.648.416-.812 0-1.361-.134-1.647-.402-.277-.267-.416-.75-.416-1.447 0-.726.143-1.228.43-1.505.296-.286.85-.43 1.662-.43.803 0 1.347.139 1.634.416.286.268.43.75.43 1.447zM131.016 22.059c0 .726-.139 1.366-.416 1.92a3.767 3.767 0 01-1.146 1.39 5.106 5.106 0 01-1.763.831 8.112 8.112 0 01-2.207.287c-.477 0-.936-.038-1.375-.115a8.419 8.419 0 01-1.161-.258 6.64 6.64 0 01-.86-.344 2.302 2.302 0 01-.501-.315c-.106-.105-.187-.262-.244-.473-.057-.22-.086-.54-.086-.96 0-.277.01-.497.029-.659.019-.172.047-.306.086-.401.038-.105.086-.172.143-.2a.379.379 0 01.215-.058c.105 0 .258.062.458.186.211.115.469.244.774.387a8.26 8.26 0 001.061.401c.41.124.874.187 1.39.187.324 0 .611-.034.859-.1.258-.068.478-.163.66-.287.191-.125.334-.282.429-.473a1.45 1.45 0 00.144-.66c0-.286-.091-.53-.273-.73a2.174 2.174 0 00-.702-.545 7.445 7.445 0 00-.988-.43 30.058 30.058 0 01-1.132-.444c-.383-.162-.76-.349-1.133-.559a4.528 4.528 0 01-.988-.774 3.679 3.679 0 01-.702-1.103c-.172-.43-.258-.946-.258-1.548 0-.61.119-1.17.358-1.676a3.648 3.648 0 011.032-1.318c.449-.364.993-.645 1.633-.846.65-.2 1.376-.3 2.178-.3a8.503 8.503 0 012.193.3c.305.086.563.182.774.287.21.095.358.181.444.258a.6.6 0 01.2.215.793.793 0 01.086.258c.02.095.034.22.043.372.02.143.029.325.029.545 0 .258-.009.468-.029.63a1.261 1.261 0 01-.071.387.354.354 0 01-.129.2.445.445 0 01-.201.044c-.086 0-.22-.048-.401-.144a5.95 5.95 0 00-.688-.33 6.82 6.82 0 00-.946-.314 4.276 4.276 0 00-1.218-.158c-.324 0-.606.033-.845.1a1.609 1.609 0 00-.588.287 1.235 1.235 0 00-.458.974c0 .296.091.545.272.745.182.201.42.378.717.53.296.153.63.297 1.003.43.382.134.764.282 1.146.445.392.152.774.334 1.146.544.383.21.722.468 1.018.774.296.306.535.674.716 1.103.182.42.273.922.273 1.505zM154.072 25.67a.421.421 0 01-.086.258.669.669 0 01-.286.172 2.23 2.23 0 01-.545.1 7.27 7.27 0 01-.874.043 7.44 7.44 0 01-.889-.043 2.446 2.446 0 01-.558-.1.667.667 0 01-.287-.172.475.475 0 01-.072-.258v-7.58c0-.43-.043-.822-.129-1.175a2.486 2.486 0 00-.372-.903 1.621 1.621 0 00-.631-.588c-.248-.143-.549-.215-.902-.215-.43 0-.865.168-1.304.502-.44.334-.918.821-1.433 1.462v8.497a.421.421 0 01-.086.258.68.68 0 01-.301.172 2.23 2.23 0 01-.545.1 7.12 7.12 0 01-.86.043 7.27 7.27 0 01-.874-.043 2.467 2.467 0 01-.559-.1.669.669 0 01-.286-.172.415.415 0 01-.086-.258v-7.58c0-.43-.043-.822-.129-1.175a2.685 2.685 0 00-.358-.903 1.621 1.621 0 00-.631-.588 1.83 1.83 0 00-.903-.215c-.439 0-.879.168-1.318.502-.439.334-.912.821-1.419 1.462v8.497a.415.415 0 01-.086.258c-.057.067-.157.124-.301.172a2.211 2.211 0 01-.544.1 7.27 7.27 0 01-.874.043c-.354 0-.645-.014-.874-.043a2.446 2.446 0 01-.559-.1.673.673 0 01-.287-.172.421.421 0 01-.086-.258V12.888c0-.096.024-.177.072-.244a.505.505 0 01.258-.186c.124-.048.282-.081.473-.1.2-.029.449-.043.745-.043.306 0 .559.014.759.043.201.019.354.052.459.1a.5.5 0 01.243.186.406.406 0 01.072.244v1.476c.707-.764 1.409-1.338 2.107-1.72a4.578 4.578 0 012.206-.573c.526 0 .999.058 1.419.172.42.105.793.263 1.118.473.334.2.621.444.86.73a4.3 4.3 0 01.601.96c.382-.41.755-.763 1.118-1.06a6.686 6.686 0 011.089-.716c.363-.191.721-.33 1.075-.416a4.315 4.315 0 011.103-.143c.851 0 1.567.143 2.15.43a3.682 3.682 0 011.404 1.175c.363.487.621 1.06.774 1.72a9.23 9.23 0 01.229 2.092v8.182zM37.943 13.63l6.078-6.077A25.706 25.706 0 0025.787 0C11.545 0 0 11.545 0 25.787c0 7.12 2.886 13.568 7.553 18.234l6.078-6.078a17.137 17.137 0 01-5.035-12.156c0-9.495 7.696-17.191 17.19-17.191 4.748 0 9.046 1.924 12.157 5.035z"/><path d="M31.865 19.709L19.709 31.865a8.595 8.595 0 1112.156-12.156zM34.383 50.106v-24.32a8.57 8.57 0 00-2.518-6.077l6.078-6.078a17.137 17.137 0 015.035 12.156v19.22a25.769 25.769 0 01-8.596 5.1zM25.787 42.978a17.137 17.137 0 01-12.156-5.035l6.078-6.078a8.57 8.57 0 006.078 2.518 8.556 8.556 0 004.47-1.253v9.261a17.215 17.215 0 01-4.47.587z"/></svg><svg viewBox="0 0 32 32" id="header-mobile-close" xmlns="http://www.w3.org/2000/svg"><path d="M5.333 5.333l21.333 21.334m-21.333 0L26.666 5.333"/></svg><svg viewBox="0 0 26 26" id="in" xmlns="http://www.w3.org/2000/svg"><path fill-rule="evenodd" clip-rule="evenodd" d="M.594 2.667A2.073 2.073 0 012.667.594H23.33a2.072 2.072 0 012.076 2.073V23.33a2.072 2.072 0 01-2.074 2.076H2.667a2.074 2.074 0 01-2.073-2.074V2.667zm9.82 7.387h3.36v1.687c.485-.97 1.726-1.843 3.59-1.843 3.574 0 4.421 1.932 4.421 5.477v6.566h-3.617v-5.759c0-2.018-.485-3.157-1.716-3.157-1.709 0-2.42 1.228-2.42 3.157v5.759h-3.617V10.054zM4.213 21.786H7.83V9.899H4.212V21.787zM8.347 6.021a2.327 2.327 0 11-4.652.102 2.327 2.327 0 014.652-.102z"/></svg><svg viewBox="0 0 52 48" id="logo-svg" xmlns="http://www.w3.org/2000/svg"><path d="M41 7H0v41h41V7z"/><path d="M52 0H28v24h24V0z"/></svg><svg viewBox="0 0 24 16" id="mail" xmlns="http://www.w3.org/2000/svg"><path d="M21.49 2.619a2 2 0 00-2-2H4.51a2 2 0 00-2 2V13.38a2 2 0 002 2h14.98a2 2 0 002-2V2.619z"/><path d="M23.25 1.534L12 8.53.75 1.534"/></svg><svg viewBox="0 0 32 32" id="mobile" xmlns="http://www.w3.org/2000/svg"><path d="M16 31c8.284 0 15-6.716 15-15 0-8.284-6.716-15-15-15C7.716 1 1 7.716 1 16c0 8.284 6.716 15 15 15z"/><path d="M23.5 13.5h-5v-5h-5v5h-5v5h5v5h5v-5h5v-5z"/></svg><svg viewBox="0 0 24 24" id="phone" xmlns="http://www.w3.org/2000/svg"><path d="M5 4h4l2 5-2.5 1.5a11 11 0 005 5L15 13l5 2v4a2 2 0 01-2 2A16 16 0 013 6a2 2 0 012-2z"/></svg><svg viewBox="0 0 22 13" id="select" xmlns="http://www.w3.org/2000/svg"><path d="M3 3l8 8 8-8"/></svg><svg viewBox="0 0 22 13" id="select-arrow" xmlns="http://www.w3.org/2000/svg"><path d="M3 3l8 8 8-8"/></svg><svg viewBox="0 0 48 48" id="touch-fb" xmlns="http://www.w3.org/2000/svg"><path d="M41.157 5.352H6.843a1.49 1.49 0 00-1.491 1.491v34.314a1.49 1.49 0 001.491 1.491h34.314a1.49 1.49 0 001.491-1.491V6.843a1.49 1.49 0 00-1.491-1.491zm-4.308 10.886h-2.98c-2.335 0-2.787 1.11-2.787 2.74v3.595h5.576l-.728 5.628h-4.848v14.447h-5.814V28.205h-4.863v-5.632h4.863v-4.149c0-4.816 2.942-7.44 7.24-7.44 2.061 0 3.828.153 4.345.223v5.03h-.004z"/></svg><svg viewBox="0 0 48 48" id="touch-in" xmlns="http://www.w3.org/2000/svg"><path fill-rule="evenodd" clip-rule="evenodd" d="M5.39 8.5A3.11 3.11 0 018.5 5.39h30.996a3.107 3.107 0 013.112 3.11v30.996a3.11 3.11 0 01-3.11 3.112H8.5a3.109 3.109 0 01-3.11-3.11V8.5zm14.732 11.08h5.04v2.532c.727-1.455 2.588-2.765 5.385-2.765 5.36 0 6.631 2.898 6.631 8.215v9.85h-5.425v-8.639c0-3.028-.728-4.736-2.575-4.736-2.563 0-3.629 1.842-3.629 4.736v8.638h-5.427v-17.83zm-9.304 17.6h5.427V19.347h-5.427V37.18zM17.02 13.53a3.492 3.492 0 01-4.842 3.294 3.492 3.492 0 01-1.088-5.712 3.49 3.49 0 015.93 2.418z"/></svg><svg viewBox="0 0 32 32" id="touch-location" xmlns="http://www.w3.org/2000/svg"><path d="M26.666 12.923c0 9.23-10.666 16.41-10.666 16.41s-10.667-7.18-10.667-16.41c0-2.72 1.124-5.328 3.124-7.252 2-1.924 4.713-3.004 7.543-3.004 2.829 0 5.542 1.08 7.542 3.004s3.124 4.533 3.124 7.253v-.001z"/><path d="M16 18a4.667 4.667 0 100-9.333A4.667 4.667 0 0016 18z"/></svg><svg viewBox="0 0 32 32" id="touch-mail" xmlns="http://www.w3.org/2000/svg"><g clip-path="url(#sclip0_19_1426)"><path d="M28.653 8.825a2.667 2.667 0 00-2.667-2.666H6.013a2.667 2.667 0 00-2.666 2.666v14.35a2.667 2.667 0 002.666 2.666h19.973a2.667 2.667 0 002.667-2.667V8.825z"/><path d="M31 7.379l-15 9.327L1 7.38"/></g><defs><clipPath id="sclip0_19_1426"><path d="M0 0h32v32H0z"/></clipPath></defs></svg><svg viewBox="0 0 32 32" id="touch-phone" xmlns="http://www.w3.org/2000/svg"><path d="M6.667 5.333H12L14.667 12l-3.334 2A14.667 14.667 0 0018 20.667l2-3.334L26.667 20v5.333A2.667 2.667 0 0124 28 21.333 21.333 0 014 8a2.667 2.667 0 012.667-2.667z"/></svg><svg viewBox="0 0 28 28" id="trash" xmlns="http://www.w3.org/2000/svg"><path d="M2 7.333h24M8.666 7.333V2h10.667v5.333M4.667 7.333V26h18.666V8M11.334 14v5.333M16.666 14v5.333"/></svg></svg>