<svg width="48" height="48" viewBox="0 0 48 48" fill="none" xmlns="http://www.w3.org/2000/svg">
<path fill-rule="evenodd" clip-rule="evenodd" d="M5.39063 8.5C5.39063 7.67535 5.71822 6.88447 6.30134 6.30134C6.88446 5.71822 7.67534 5.39063 8.5 5.39063H39.4956C39.9043 5.38996 40.3091 5.46991 40.6868 5.62589C41.0646 5.78187 41.4078 6.01083 41.697 6.29965C41.9861 6.58847 42.2154 6.93148 42.3718 7.30905C42.5282 7.68662 42.6086 8.09133 42.6084 8.5V39.4956C42.6088 39.9044 42.5287 40.3092 42.3725 40.687C42.2164 41.0647 41.9872 41.408 41.6983 41.6971C41.4093 41.9862 41.0662 42.2155 40.6885 42.3719C40.3109 42.5282 39.9061 42.6086 39.4973 42.6084H8.5C8.09153 42.6084 7.68706 42.5279 7.3097 42.3715C6.93235 42.2152 6.5895 41.986 6.30074 41.6971C6.01199 41.4082 5.78299 41.0652 5.62683 40.6878C5.47067 40.3103 5.3904 39.9058 5.39063 39.4973V8.5ZM20.1221 19.5807H25.1617V22.1116C25.8892 20.6567 27.75 19.3473 30.5465 19.3473C35.9075 19.3473 37.178 22.2452 37.178 27.5623V37.4114H31.7526V28.7735C31.7526 25.7454 31.0252 24.0367 29.1779 24.0367C26.6149 24.0367 25.5491 25.879 25.5491 28.7735V37.4114H20.1221V19.5807ZM10.8177 37.1797H16.2447V19.3473H10.8177V37.178V37.1797ZM17.0212 13.5312C17.0314 13.9958 16.9487 14.4579 16.778 14.8902C16.6072 15.3224 16.3519 15.7163 16.0268 16.0485C15.7018 16.3807 15.3137 16.6447 14.8853 16.825C14.4569 17.0052 13.9968 17.098 13.532 17.098C13.0672 17.098 12.6071 17.0052 12.1787 16.825C11.7503 16.6447 11.3622 16.3807 11.0372 16.0485C10.7122 15.7163 10.4568 15.3224 10.286 14.8902C10.1153 14.4579 10.0326 13.9958 10.0428 13.5312C10.0629 12.6191 10.4394 11.7511 11.0915 11.1132C11.7437 10.4752 12.6197 10.118 13.532 10.118C14.4443 10.118 15.3204 10.4752 15.9725 11.1132C16.6247 11.7511 17.0011 12.6191 17.0212 13.5312Z" fill="white"/>
</svg>
