<svg width="245" height="82" viewBox="0 0 245 82" fill="none" xmlns="http://www.w3.org/2000/svg">
<path d="M142.854 66.4599C142.654 66.2332 142.42 66.0332 142.154 65.8599C141.887 65.6732 141.587 65.5132 141.254 65.3799C140.92 65.2466 140.56 65.1399 140.174 65.0599C139.8 64.9799 139.4 64.9399 138.974 64.9399C137.734 64.9399 136.82 65.1799 136.234 65.6599C135.66 66.1266 135.374 66.7666 135.374 67.5799C135.374 68.1399 135.507 68.5799 135.774 68.8999C136.054 69.2199 136.487 69.4799 137.074 69.6799C137.66 69.8799 138.407 70.0866 139.314 70.2999C140.327 70.5132 141.2 70.7666 141.934 71.0599C142.667 71.3532 143.234 71.7532 143.634 72.2599C144.034 72.7532 144.234 73.4266 144.234 74.2799C144.234 74.9332 144.107 75.4999 143.854 75.9799C143.6 76.4599 143.247 76.8599 142.794 77.1799C142.34 77.4999 141.8 77.7399 141.174 77.8999C140.547 78.0466 139.86 78.1199 139.114 78.1199C138.38 78.1199 137.674 78.0466 136.994 77.8999C136.327 77.7399 135.694 77.5132 135.094 77.2199C134.494 76.9132 133.934 76.5266 133.414 76.0599L134.114 74.9199C134.367 75.1866 134.667 75.4399 135.014 75.6799C135.374 75.9066 135.767 76.1132 136.194 76.2999C136.634 76.4866 137.1 76.6332 137.594 76.7399C138.1 76.8332 138.62 76.8799 139.154 76.8799C140.287 76.8799 141.167 76.6732 141.794 76.2599C142.434 75.8466 142.754 75.2332 142.754 74.4199C142.754 73.8332 142.594 73.3666 142.274 73.0199C141.954 72.6599 141.474 72.3666 140.834 72.1399C140.194 71.9132 139.407 71.6932 138.474 71.4799C137.487 71.2532 136.654 70.9999 135.974 70.7199C135.294 70.4399 134.78 70.0732 134.434 69.6199C134.1 69.1532 133.934 68.5399 133.934 67.7799C133.934 66.8999 134.147 66.1599 134.574 65.5599C135.014 64.9466 135.614 64.4866 136.374 64.1799C137.134 63.8599 138.007 63.6999 138.994 63.6999C139.62 63.6999 140.2 63.7666 140.734 63.8999C141.28 64.0199 141.78 64.1999 142.234 64.4399C142.7 64.6799 143.134 64.9799 143.534 65.3399L142.854 66.4599Z" fill="#7F7F7F"/>
<path d="M159.23 67.5799H160.57L156.09 77.9999H154.91L152.73 72.8199L150.57 77.9999H149.39L144.91 67.5799H146.23L150.03 76.5999L151.95 71.8999L150.19 67.5999H151.41L152.73 70.9799L154.07 67.5999H155.27L153.53 71.8999L155.45 76.5999L159.23 67.5799Z" fill="#7F7F7F"/>
<path d="M162.379 77.9999V67.5799H163.739V77.9999H162.379ZM162.379 65.3999V63.3999H163.739V65.3999H162.379Z" fill="#7F7F7F"/>
<path d="M171.735 77.4999C171.628 77.5399 171.461 77.6132 171.235 77.7199C171.008 77.8266 170.735 77.9199 170.415 77.9999C170.095 78.0799 169.748 78.1199 169.375 78.1199C168.988 78.1199 168.621 78.0466 168.275 77.8999C167.941 77.7532 167.675 77.5332 167.475 77.2399C167.275 76.9332 167.175 76.5599 167.175 76.1199V68.6599H165.735V67.5799H167.175V64.0599H168.535V67.5799H170.935V68.6599H168.535V75.7399C168.561 76.1132 168.695 76.3932 168.935 76.5799C169.188 76.7666 169.475 76.8599 169.795 76.8599C170.168 76.8599 170.508 76.7999 170.815 76.6799C171.121 76.5466 171.308 76.4532 171.375 76.3999L171.735 77.4999Z" fill="#7F7F7F"/>
<path d="M172.554 77.0799L179.534 68.5999H172.714V67.5799H181.074V68.4999L174.134 76.9799H181.054V77.9999H172.554V77.0799Z" fill="#7F7F7F"/>
<path d="M187.563 78.1999C186.816 78.1999 186.123 78.0599 185.483 77.7799C184.843 77.4866 184.289 77.0932 183.823 76.5999C183.356 76.0932 182.989 75.5132 182.723 74.8599C182.469 74.2066 182.343 73.5066 182.343 72.7599C182.343 71.7866 182.563 70.8932 183.003 70.0799C183.456 69.2666 184.076 68.6199 184.863 68.1399C185.649 67.6466 186.543 67.3999 187.543 67.3999C188.569 67.3999 189.463 67.6466 190.223 68.1399C190.996 68.6332 191.603 69.2866 192.043 70.0999C192.483 70.8999 192.703 71.7799 192.703 72.7399C192.703 72.8466 192.703 72.9532 192.703 73.0599C192.703 73.1532 192.696 73.2266 192.683 73.2799H183.763C183.829 74.0266 184.036 74.6932 184.383 75.2799C184.743 75.8532 185.203 76.3132 185.763 76.6599C186.336 76.9932 186.956 77.1599 187.623 77.1599C188.303 77.1599 188.943 76.9866 189.543 76.6399C190.156 76.2932 190.583 75.8399 190.823 75.2799L192.003 75.5999C191.789 76.0932 191.463 76.5399 191.023 76.9399C190.583 77.3399 190.063 77.6532 189.463 77.8799C188.876 78.0932 188.243 78.1999 187.563 78.1999ZM183.723 72.2999H191.423C191.369 71.5399 191.163 70.8732 190.803 70.2999C190.456 69.7266 189.996 69.2799 189.423 68.9599C188.863 68.6266 188.243 68.4599 187.563 68.4599C186.883 68.4599 186.263 68.6266 185.703 68.9599C185.143 69.2799 184.683 69.7332 184.323 70.3199C183.976 70.8932 183.776 71.5532 183.723 72.2999Z" fill="#7F7F7F"/>
<path d="M200.001 68.7799C199.094 68.8066 198.294 69.0599 197.601 69.5399C196.921 70.0199 196.441 70.6799 196.161 71.5199V77.9999H194.801V67.5799H196.081V70.0799C196.441 69.3466 196.914 68.7532 197.501 68.2999C198.101 67.8466 198.734 67.5932 199.401 67.5399C199.534 67.5266 199.648 67.5199 199.741 67.5199C199.848 67.5199 199.934 67.5266 200.001 67.5399V68.7799Z" fill="#7F7F7F"/>
<path d="M201.873 63.3999H203.233V75.6399C203.233 76.1599 203.326 76.4999 203.513 76.6599C203.699 76.8199 203.926 76.8999 204.193 76.8999C204.433 76.8999 204.673 76.8732 204.913 76.8199C205.153 76.7666 205.359 76.7132 205.533 76.6599L205.773 77.7599C205.519 77.8666 205.206 77.9532 204.833 78.0199C204.473 78.0866 204.159 78.1199 203.893 78.1199C203.279 78.1199 202.786 77.9399 202.413 77.5799C202.053 77.2199 201.873 76.7266 201.873 76.0999V63.3999Z" fill="#7F7F7F"/>
<path d="M206.422 74.9999C206.422 74.3466 206.609 73.7866 206.982 73.3199C207.355 72.8399 207.869 72.4732 208.522 72.2199C209.189 71.9532 209.955 71.8199 210.822 71.8199C211.329 71.8199 211.855 71.8599 212.402 71.9399C212.949 72.0199 213.435 72.1399 213.862 72.2999V71.4199C213.862 70.5399 213.602 69.8399 213.082 69.3199C212.562 68.7999 211.842 68.5399 210.922 68.5399C210.362 68.5399 209.809 68.6466 209.262 68.8599C208.729 69.0599 208.169 69.3599 207.582 69.7599L207.062 68.7999C207.742 68.3332 208.409 67.9866 209.062 67.7599C209.715 67.5199 210.382 67.3999 211.062 67.3999C212.342 67.3999 213.355 67.7666 214.102 68.4999C214.849 69.2332 215.222 70.2466 215.222 71.5399V76.3599C215.222 76.5466 215.262 76.6866 215.342 76.7799C215.422 76.8599 215.549 76.9066 215.722 76.9199V77.9999C215.575 78.0132 215.449 78.0266 215.342 78.0399C215.235 78.0532 215.155 78.0532 215.102 78.0399C214.769 78.0266 214.515 77.9199 214.342 77.7199C214.169 77.5199 214.075 77.3066 214.062 77.0799L214.042 76.3199C213.575 76.9199 212.969 77.3866 212.222 77.7199C211.475 78.0399 210.715 78.1999 209.942 78.1999C209.275 78.1999 208.669 78.0599 208.122 77.7799C207.589 77.4866 207.169 77.0999 206.862 76.6199C206.569 76.1266 206.422 75.5866 206.422 74.9999ZM213.402 75.7999C213.549 75.6132 213.662 75.4332 213.742 75.2599C213.822 75.0866 213.862 74.9332 213.862 74.7999V73.2799C213.409 73.1066 212.935 72.9732 212.442 72.8799C211.962 72.7866 211.475 72.7399 210.982 72.7399C210.009 72.7399 209.222 72.9332 208.622 73.3199C208.022 73.7066 207.722 74.2332 207.722 74.8999C207.722 75.2866 207.822 75.6532 208.022 75.9999C208.222 76.3332 208.515 76.6132 208.902 76.8399C209.289 77.0532 209.742 77.1599 210.262 77.1599C210.915 77.1599 211.522 77.0332 212.082 76.7799C212.655 76.5266 213.095 76.1999 213.402 75.7999Z" fill="#7F7F7F"/>
<path d="M226.92 77.9999H225.56V72.1799C225.56 70.9532 225.38 70.0599 225.02 69.4999C224.66 68.9266 224.094 68.6399 223.32 68.6399C222.787 68.6399 222.26 68.7732 221.74 69.0399C221.22 69.2932 220.76 69.6466 220.36 70.0999C219.974 70.5399 219.694 71.0466 219.52 71.6199V77.9999H218.16V67.5799H219.4V69.9399C219.68 69.4332 220.047 68.9932 220.5 68.6199C220.954 68.2332 221.467 67.9332 222.04 67.7199C222.614 67.5066 223.207 67.3999 223.82 67.3999C224.394 67.3999 224.88 67.5066 225.28 67.7199C225.68 67.9332 226 68.2399 226.24 68.6399C226.48 69.0266 226.654 69.4999 226.76 70.0599C226.867 70.6066 226.92 71.2199 226.92 71.8999V77.9999Z" fill="#7F7F7F"/>
<path d="M229.12 72.8199C229.12 71.8332 229.32 70.9332 229.72 70.1199C230.134 69.2932 230.7 68.6332 231.42 68.1399C232.14 67.6466 232.96 67.3999 233.88 67.3999C234.747 67.3999 235.52 67.6332 236.2 68.0999C236.894 68.5532 237.434 69.1066 237.82 69.7599V63.3999H239.18V76.3599C239.18 76.5466 239.22 76.6866 239.3 76.7799C239.38 76.8599 239.5 76.9066 239.66 76.9199V77.9999C239.394 78.0399 239.187 78.0532 239.04 78.0399C238.76 78.0266 238.514 77.9132 238.3 77.6999C238.087 77.4866 237.98 77.2532 237.98 76.9999V75.9799C237.567 76.6599 237.007 77.1999 236.3 77.5999C235.594 77.9999 234.86 78.1999 234.1 78.1999C233.38 78.1999 232.714 78.0532 232.1 77.7599C231.5 77.4666 230.974 77.0666 230.52 76.5599C230.08 76.0532 229.734 75.4799 229.48 74.8399C229.24 74.1866 229.12 73.5132 229.12 72.8199ZM237.82 74.4199V71.1999C237.647 70.7199 237.367 70.2866 236.98 69.8999C236.594 69.4999 236.154 69.1866 235.66 68.9599C235.18 68.7199 234.7 68.5999 234.22 68.5999C233.66 68.5999 233.154 68.7199 232.7 68.9599C232.247 69.1866 231.854 69.4999 231.52 69.8999C231.2 70.2999 230.954 70.7532 230.78 71.2599C230.607 71.7666 230.52 72.2866 230.52 72.8199C230.52 73.3799 230.614 73.9132 230.8 74.4199C231 74.9266 231.28 75.3799 231.64 75.7799C232 76.1666 232.414 76.4666 232.88 76.6799C233.347 76.8932 233.854 76.9999 234.4 76.9999C234.747 76.9999 235.107 76.9332 235.48 76.7999C235.854 76.6666 236.207 76.4866 236.54 76.2599C236.887 76.0199 237.174 75.7399 237.4 75.4199C237.627 75.0999 237.767 74.7666 237.82 74.4199Z" fill="#7F7F7F"/>
<path d="M107.495 38.7988C107.675 39.3379 107.787 39.7646 107.832 40.0791C107.877 40.3936 107.817 40.6331 107.652 40.7979C107.488 40.9476 107.196 41.0374 106.776 41.0674C106.357 41.1123 105.781 41.1348 105.047 41.1348C104.283 41.1348 103.684 41.1198 103.25 41.0898C102.831 41.0749 102.509 41.0374 102.284 40.9775C102.059 40.9027 101.902 40.8053 101.812 40.6855C101.723 40.5658 101.648 40.4085 101.588 40.2139L99.6337 34.374H88.7177L86.8759 40.0566C86.816 40.2663 86.7336 40.446 86.6288 40.5957C86.539 40.7305 86.3818 40.8428 86.1572 40.9326C85.9475 41.0075 85.6405 41.0599 85.2363 41.0898C84.8469 41.1198 84.3303 41.1348 83.6864 41.1348C82.9976 41.1348 82.4586 41.1123 82.0693 41.0674C81.6799 41.0225 81.4104 40.9176 81.2607 40.7529C81.1109 40.5732 81.0585 40.3262 81.1034 40.0117C81.1484 39.6973 81.2607 39.278 81.4404 38.7539L90.4023 12.9688C90.4921 12.7142 90.5969 12.512 90.7167 12.3623C90.8365 12.1976 91.0237 12.0778 91.2782 12.0029C91.5478 11.9131 91.9146 11.8607 92.3788 11.8457C92.843 11.8158 93.457 11.8008 94.2206 11.8008C95.1041 11.8008 95.8079 11.8158 96.332 11.8457C96.856 11.8607 97.2603 11.9131 97.5448 12.0029C97.8443 12.0778 98.054 12.1976 98.1738 12.3623C98.3085 12.527 98.4208 12.7516 98.5107 13.0361L107.495 38.7988ZM94.1532 17.4834H94.1308L90.0204 29.8369H98.2636L94.1532 17.4834Z" fill="#EE2742"/>
<path d="M126.407 37.0469C126.407 37.4362 126.392 37.7656 126.362 38.0352C126.347 38.2897 126.317 38.5068 126.272 38.6865C126.242 38.8662 126.198 39.016 126.138 39.1357C126.093 39.2406 125.98 39.3828 125.801 39.5625C125.621 39.7272 125.314 39.9368 124.88 40.1914C124.446 40.431 123.951 40.6481 123.397 40.8428C122.843 41.0374 122.237 41.1947 121.578 41.3145C120.934 41.4342 120.268 41.4941 119.579 41.4941C118.037 41.4941 116.667 41.2546 115.469 40.7754C114.286 40.2962 113.29 39.5924 112.481 38.6641C111.673 37.7207 111.059 36.5752 110.64 35.2275C110.235 33.8799 110.033 32.3376 110.033 30.6006C110.033 28.5941 110.28 26.8646 110.774 25.4121C111.283 23.9447 111.987 22.7318 112.886 21.7734C113.784 20.8151 114.847 20.1038 116.075 19.6396C117.303 19.1755 118.651 18.9434 120.118 18.9434C120.717 18.9434 121.301 18.9958 121.87 19.1006C122.454 19.2054 122.993 19.3477 123.487 19.5273C123.996 19.707 124.446 19.9092 124.835 20.1338C125.239 20.3584 125.524 20.5531 125.688 20.7178C125.853 20.8825 125.965 21.0247 126.025 21.1445C126.1 21.2493 126.153 21.3916 126.183 21.5713C126.227 21.751 126.257 21.9756 126.272 22.2451C126.302 22.4997 126.317 22.8141 126.317 23.1885C126.317 24.057 126.242 24.6709 126.093 25.0303C125.943 25.3747 125.748 25.5469 125.509 25.5469C125.254 25.5469 124.985 25.4421 124.7 25.2324C124.416 25.0228 124.079 24.7907 123.689 24.5361C123.3 24.2816 122.836 24.0495 122.297 23.8398C121.758 23.6302 121.114 23.5254 120.365 23.5254C118.898 23.5254 117.775 24.0944 116.996 25.2324C116.217 26.3555 115.828 28.0101 115.828 30.1963C115.828 31.2744 115.925 32.2253 116.12 33.0488C116.315 33.8724 116.599 34.5612 116.974 35.1152C117.363 35.6693 117.842 36.0885 118.411 36.373C118.995 36.6426 119.669 36.7773 120.433 36.7773C121.211 36.7773 121.878 36.665 122.432 36.4404C123.001 36.2008 123.495 35.9388 123.914 35.6543C124.333 35.3698 124.685 35.1152 124.97 34.8906C125.254 34.651 125.494 34.5312 125.688 34.5312C125.823 34.5312 125.935 34.5687 126.025 34.6436C126.115 34.7184 126.183 34.8607 126.227 35.0703C126.287 35.265 126.332 35.5195 126.362 35.834C126.392 36.1484 126.407 36.5527 126.407 37.0469Z" fill="#EE2742"/>
<path d="M149.519 48.1875C149.519 48.3372 149.475 48.472 149.385 48.5918C149.295 48.7116 149.145 48.8089 148.935 48.8838C148.726 48.9736 148.441 49.041 148.082 49.0859C147.723 49.1309 147.266 49.1533 146.712 49.1533C146.158 49.1533 145.701 49.1309 145.342 49.0859C144.982 49.041 144.69 48.9736 144.466 48.8838C144.256 48.8089 144.106 48.7116 144.017 48.5918C143.942 48.472 143.904 48.3372 143.904 48.1875V38.6641C143.365 39.1582 142.841 39.5924 142.332 39.9668C141.823 40.3262 141.314 40.6257 140.805 40.8652C140.295 41.0898 139.771 41.2546 139.232 41.3594C138.693 41.4642 138.124 41.5166 137.525 41.5166C136.058 41.5166 134.808 41.2246 133.774 40.6406C132.741 40.0417 131.895 39.2406 131.236 38.2373C130.592 37.234 130.121 36.0661 129.821 34.7334C129.522 33.3857 129.372 31.9707 129.372 30.4883C129.372 28.7064 129.567 27.1042 129.956 25.6816C130.345 24.2591 130.914 23.0462 131.663 22.043C132.412 21.0397 133.333 20.2686 134.426 19.7295C135.519 19.1904 136.784 18.9209 138.222 18.9209C138.776 18.9209 139.307 18.9808 139.816 19.1006C140.325 19.2054 140.835 19.4001 141.344 19.6846C141.853 19.9541 142.377 20.3135 142.916 20.7627C143.47 21.1969 144.076 21.736 144.735 22.3799V20.2012C144.735 20.0514 144.773 19.9242 144.848 19.8193C144.937 19.6995 145.072 19.6022 145.252 19.5273C145.447 19.4525 145.694 19.4001 145.993 19.3701C146.293 19.3252 146.682 19.3027 147.161 19.3027C147.61 19.3027 147.985 19.3252 148.284 19.3701C148.599 19.4001 148.846 19.4525 149.025 19.5273C149.205 19.6022 149.332 19.6995 149.407 19.8193C149.482 19.9242 149.519 20.0514 149.519 20.2012V48.1875ZM143.904 26.8496C143.096 25.8314 142.317 25.0527 141.568 24.5137C140.835 23.9746 140.063 23.7051 139.255 23.7051C138.521 23.7051 137.885 23.8923 137.346 24.2666C136.822 24.626 136.395 25.1126 136.065 25.7266C135.751 26.3405 135.511 27.0293 135.347 27.793C135.197 28.5417 135.122 29.3128 135.122 30.1064C135.122 30.945 135.189 31.7686 135.324 32.5771C135.459 33.3708 135.676 34.0745 135.976 34.6885C136.29 35.3024 136.702 35.7965 137.211 36.1709C137.72 36.5452 138.364 36.7324 139.143 36.7324C139.532 36.7324 139.906 36.68 140.266 36.5752C140.64 36.4554 141.014 36.2682 141.389 36.0137C141.778 35.7591 142.175 35.4297 142.579 35.0254C142.983 34.6061 143.425 34.097 143.904 33.498V26.8496Z" fill="#EE2742"/>
<path d="M174.226 40.2363C174.226 40.3861 174.189 40.5208 174.114 40.6406C174.039 40.7454 173.905 40.8353 173.71 40.9102C173.53 40.985 173.283 41.0374 172.969 41.0674C172.669 41.1123 172.287 41.1348 171.823 41.1348C171.329 41.1348 170.925 41.1123 170.61 41.0674C170.311 41.0374 170.071 40.985 169.892 40.9102C169.712 40.8353 169.585 40.7454 169.51 40.6406C169.435 40.5208 169.397 40.3861 169.397 40.2363V37.9229C168.289 39.1208 167.159 40.0192 166.006 40.6182C164.868 41.2171 163.685 41.5166 162.457 41.5166C161.079 41.5166 159.919 41.292 158.976 40.8428C158.047 40.3936 157.291 39.7796 156.707 39.001C156.138 38.2223 155.726 37.3239 155.472 36.3057C155.232 35.2725 155.112 33.9922 155.112 32.4648V20.2012C155.112 20.0514 155.15 19.9242 155.225 19.8193C155.314 19.6995 155.464 19.6022 155.674 19.5273C155.898 19.4525 156.19 19.4001 156.55 19.3701C156.924 19.3252 157.381 19.3027 157.92 19.3027C158.474 19.3027 158.931 19.3252 159.29 19.3701C159.649 19.4001 159.934 19.4525 160.143 19.5273C160.368 19.6022 160.525 19.6995 160.615 19.8193C160.705 19.9242 160.75 20.0514 160.75 20.2012V31.5215C160.75 32.5697 160.817 33.3708 160.952 33.9248C161.087 34.4788 161.289 34.958 161.559 35.3623C161.843 35.7516 162.195 36.0586 162.614 36.2832C163.048 36.4928 163.55 36.5977 164.119 36.5977C164.838 36.5977 165.557 36.3356 166.275 35.8115C167.009 35.2874 167.788 34.5238 168.611 33.5205V20.2012C168.611 20.0514 168.649 19.9242 168.724 19.8193C168.813 19.6995 168.963 19.6022 169.173 19.5273C169.397 19.4525 169.689 19.4001 170.049 19.3701C170.408 19.3252 170.865 19.3027 171.419 19.3027C171.973 19.3027 172.43 19.3252 172.789 19.3701C173.148 19.4001 173.433 19.4525 173.643 19.5273C173.852 19.6022 174.002 19.6995 174.092 19.8193C174.182 19.9242 174.226 20.0514 174.226 20.2012V40.2363Z" fill="#EE2742"/>
<path d="M185.592 40.2363C185.592 40.3861 185.547 40.5208 185.457 40.6406C185.367 40.7454 185.21 40.8353 184.985 40.9102C184.776 40.985 184.491 41.0374 184.132 41.0674C183.772 41.1123 183.316 41.1348 182.762 41.1348C182.208 41.1348 181.751 41.1123 181.392 41.0674C181.032 41.0374 180.74 40.985 180.516 40.9102C180.306 40.8353 180.156 40.7454 180.066 40.6406C179.976 40.5208 179.932 40.3861 179.932 40.2363V20.2461C179.932 20.0964 179.976 19.9691 180.066 19.8643C180.156 19.7445 180.306 19.6471 180.516 19.5723C180.74 19.4824 181.032 19.415 181.392 19.3701C181.751 19.3252 182.208 19.3027 182.762 19.3027C183.316 19.3027 183.772 19.3252 184.132 19.3701C184.491 19.415 184.776 19.4824 184.985 19.5723C185.21 19.6471 185.367 19.7445 185.457 19.8643C185.547 19.9691 185.592 20.0964 185.592 20.2461V40.2363ZM186.018 13.418C186.018 14.556 185.786 15.3421 185.322 15.7764C184.858 16.2106 183.997 16.4277 182.739 16.4277C181.466 16.4277 180.605 16.2181 180.156 15.7988C179.722 15.3796 179.505 14.6234 179.505 13.5303C179.505 12.3923 179.729 11.6061 180.179 11.1719C180.643 10.7227 181.511 10.498 182.784 10.498C184.042 10.498 184.895 10.7152 185.345 11.1494C185.794 11.5687 186.018 12.3249 186.018 13.418Z" fill="#EE2742"/>
<path d="M205.357 34.5762C205.357 35.7142 205.14 36.7174 204.706 37.5859C204.287 38.4544 203.688 39.1807 202.909 39.7646C202.13 40.3486 201.21 40.7829 200.146 41.0674C199.083 41.3669 197.93 41.5166 196.687 41.5166C195.939 41.5166 195.22 41.4567 194.531 41.3369C193.857 41.2321 193.251 41.0973 192.712 40.9326C192.173 40.7529 191.724 40.5732 191.364 40.3936C191.005 40.2139 190.743 40.0492 190.578 39.8994C190.413 39.7347 190.286 39.4876 190.196 39.1582C190.106 38.8138 190.061 38.3122 190.061 37.6533C190.061 37.2191 190.076 36.8747 190.106 36.6201C190.136 36.3506 190.181 36.141 190.241 35.9912C190.301 35.8265 190.376 35.7217 190.466 35.6768C190.556 35.6169 190.668 35.5869 190.803 35.5869C190.967 35.5869 191.207 35.6842 191.521 35.8789C191.851 36.0586 192.255 36.2607 192.734 36.4854C193.213 36.71 193.768 36.9196 194.396 37.1143C195.04 37.3089 195.767 37.4062 196.575 37.4062C197.084 37.4062 197.533 37.3538 197.923 37.249C198.327 37.1442 198.671 36.9945 198.956 36.7998C199.255 36.6051 199.48 36.3581 199.63 36.0586C199.78 35.7591 199.854 35.4147 199.854 35.0254C199.854 34.5762 199.712 34.1943 199.428 33.8799C199.158 33.5505 198.791 33.266 198.327 33.0264C197.878 32.7868 197.361 32.5622 196.777 32.3525C196.208 32.1429 195.617 31.9108 195.003 31.6562C194.404 31.4017 193.812 31.1097 193.228 30.7803C192.659 30.4508 192.143 30.0465 191.679 29.5674C191.229 29.0882 190.863 28.5117 190.578 27.8379C190.309 27.1641 190.174 26.3555 190.174 25.4121C190.174 24.4538 190.361 23.5778 190.735 22.7842C191.11 21.9756 191.649 21.2868 192.352 20.7178C193.056 20.1488 193.91 19.707 194.913 19.3926C195.931 19.0781 197.069 18.9209 198.327 18.9209C198.956 18.9209 199.562 18.9658 200.146 19.0557C200.745 19.1455 201.284 19.2578 201.764 19.3926C202.243 19.5273 202.647 19.6771 202.976 19.8418C203.306 19.9915 203.538 20.1263 203.673 20.2461C203.823 20.3509 203.927 20.4632 203.987 20.583C204.047 20.6878 204.092 20.8226 204.122 20.9873C204.152 21.137 204.174 21.3317 204.189 21.5713C204.219 21.7959 204.234 22.0804 204.234 22.4248C204.234 22.8291 204.219 23.1585 204.189 23.4131C204.174 23.6676 204.137 23.8698 204.077 24.0195C204.032 24.1693 203.965 24.2741 203.875 24.334C203.785 24.3789 203.68 24.4014 203.56 24.4014C203.426 24.4014 203.216 24.3265 202.932 24.1768C202.647 24.012 202.288 23.8398 201.853 23.6602C201.434 23.4805 200.94 23.3158 200.371 23.166C199.817 23.0013 199.181 22.9189 198.462 22.9189C197.953 22.9189 197.511 22.9714 197.137 23.0762C196.762 23.181 196.455 23.3307 196.216 23.5254C195.976 23.7201 195.796 23.9521 195.677 24.2217C195.557 24.4762 195.497 24.7533 195.497 25.0527C195.497 25.5169 195.639 25.9062 195.924 26.2207C196.208 26.5352 196.583 26.8122 197.047 27.0518C197.511 27.2913 198.035 27.516 198.619 27.7256C199.218 27.9352 199.817 28.1673 200.416 28.4219C201.03 28.6615 201.629 28.946 202.213 29.2754C202.812 29.6048 203.343 30.0091 203.808 30.4883C204.272 30.9674 204.646 31.5439 204.931 32.2178C205.215 32.8766 205.357 33.6628 205.357 34.5762Z" fill="#EE2742"/>
<path d="M241.497 40.2363C241.497 40.3861 241.452 40.5208 241.362 40.6406C241.272 40.7454 241.123 40.8353 240.913 40.9102C240.703 40.985 240.419 41.0374 240.059 41.0674C239.7 41.1123 239.243 41.1348 238.689 41.1348C238.12 41.1348 237.656 41.1123 237.297 41.0674C236.937 41.0374 236.645 40.985 236.421 40.9102C236.211 40.8353 236.061 40.7454 235.972 40.6406C235.897 40.5208 235.859 40.3861 235.859 40.2363V28.3545C235.859 27.6807 235.792 27.0667 235.657 26.5127C235.537 25.9587 235.343 25.487 235.073 25.0977C234.819 24.6934 234.489 24.3864 234.085 24.1768C233.696 23.9521 233.224 23.8398 232.67 23.8398C231.996 23.8398 231.315 24.1019 230.626 24.626C229.937 25.1501 229.188 25.9137 228.38 26.917V40.2363C228.38 40.3861 228.335 40.5208 228.245 40.6406C228.155 40.7454 227.998 40.8353 227.773 40.9102C227.564 40.985 227.279 41.0374 226.92 41.0674C226.56 41.1123 226.111 41.1348 225.572 41.1348C225.018 41.1348 224.561 41.1123 224.202 41.0674C223.843 41.0374 223.551 40.985 223.326 40.9102C223.116 40.8353 222.967 40.7454 222.877 40.6406C222.787 40.5208 222.742 40.3861 222.742 40.2363V28.3545C222.742 27.6807 222.675 27.0667 222.54 26.5127C222.42 25.9587 222.233 25.487 221.978 25.0977C221.724 24.6934 221.394 24.3864 220.99 24.1768C220.586 23.9521 220.114 23.8398 219.575 23.8398C218.886 23.8398 218.198 24.1019 217.509 24.626C216.82 25.1501 216.079 25.9137 215.285 26.917V40.2363C215.285 40.3861 215.24 40.5208 215.15 40.6406C215.06 40.7454 214.903 40.8353 214.679 40.9102C214.469 40.985 214.184 41.0374 213.825 41.0674C213.466 41.1123 213.009 41.1348 212.455 41.1348C211.901 41.1348 211.444 41.1123 211.085 41.0674C210.726 41.0374 210.434 40.985 210.209 40.9102C209.999 40.8353 209.85 40.7454 209.76 40.6406C209.67 40.5208 209.625 40.3861 209.625 40.2363V20.2012C209.625 20.0514 209.662 19.9242 209.737 19.8193C209.812 19.6995 209.947 19.6022 210.142 19.5273C210.336 19.4525 210.583 19.4001 210.883 19.3701C211.197 19.3252 211.587 19.3027 212.051 19.3027C212.53 19.3027 212.927 19.3252 213.241 19.3701C213.556 19.4001 213.795 19.4525 213.96 19.5273C214.14 19.6022 214.267 19.6995 214.342 19.8193C214.417 19.9242 214.454 20.0514 214.454 20.2012V22.5146C215.562 21.3167 216.663 20.4183 217.756 19.8193C218.864 19.2204 220.017 18.9209 221.215 18.9209C222.038 18.9209 222.78 19.0107 223.438 19.1904C224.097 19.3551 224.681 19.6022 225.19 19.9316C225.714 20.2461 226.164 20.6279 226.538 21.0771C226.912 21.5264 227.227 22.028 227.481 22.582C228.08 21.9382 228.664 21.3841 229.233 20.9199C229.817 20.4557 230.386 20.0814 230.94 19.7969C231.509 19.4974 232.071 19.2803 232.625 19.1455C233.194 18.9958 233.77 18.9209 234.354 18.9209C235.687 18.9209 236.81 19.1455 237.724 19.5947C238.637 20.0439 239.371 20.6579 239.925 21.4365C240.494 22.2002 240.898 23.0986 241.138 24.1318C241.377 25.165 241.497 26.2581 241.497 27.4111V40.2363Z" fill="#EE2742"/>
<path d="M59.4731 21.3655L69 11.8386C61.6856 4.52411 51.5807 0 40.4192 0C18.0963 0 0 18.0963 0 40.4192C0 51.5807 4.52411 61.6856 11.8386 69L21.3655 59.4731C16.4892 54.5968 13.4731 47.8602 13.4731 40.4192C13.4731 25.5373 25.5373 13.4731 40.4192 13.4731C47.8602 13.4731 54.5968 16.4892 59.4731 21.3655Z" fill="#EE2742"/>
<path d="M49.9462 30.8924L30.8924 49.9462C28.4542 47.508 26.9461 44.1397 26.9461 40.4192C26.9461 32.9782 32.9782 26.9461 40.4192 26.9461C44.1397 26.9461 47.5081 28.4542 49.9462 30.8924Z" fill="#EE2742"/>
<path d="M53.8922 78.5385V40.4193C53.8922 36.6989 52.3843 33.3305 49.9462 30.8924L59.4731 21.3655C64.3493 26.2418 67.3653 32.9784 67.3653 40.4193V70.5465C63.4777 74.026 58.9126 76.7641 53.8922 78.5385Z" fill="#EE2742"/>
<path d="M40.4192 67.3654C32.9783 67.3654 26.2418 64.3493 21.3655 59.4731L30.8924 49.9462C33.3305 52.3843 36.6987 53.8924 40.4192 53.8924C42.9853 53.8924 45.3838 53.175 47.4252 51.9298V66.4457C45.1912 67.0455 42.8425 67.3654 40.4192 67.3654Z" fill="#EE2742"/>
</svg>
