<svg width="45" height="51" viewBox="0 0 45 51" fill="none" xmlns="http://www.w3.org/2000/svg">
<path d="M37.943 13.6309L44.021 7.55287C39.3545 2.88632 32.9078 0 25.7869 0C11.5452 0 0 11.5452 0 25.7869C0 32.9078 2.88632 39.3545 7.55287 44.021L13.6309 37.943C10.5198 34.832 8.59563 30.5341 8.59563 25.7869C8.59563 16.2924 16.2924 8.59563 25.7869 8.59563C30.5341 8.59563 34.832 10.5198 37.943 13.6309Z" fill="#EE2742"/>
<path d="M31.865 19.7089L19.7089 31.865C18.1534 30.3095 17.1913 28.1605 17.1913 25.7869C17.1913 21.0396 21.0396 17.1913 25.7869 17.1913C28.1605 17.1913 30.3095 18.1534 31.865 19.7089Z" fill="#EE2742"/>
<path d="M34.3825 50.1064V25.7869C34.3825 23.4134 33.4204 21.2644 31.865 19.7089L37.943 13.6309C41.054 16.7419 42.9781 21.0397 42.9781 25.7869V45.0076C40.4979 47.2275 37.5854 48.9744 34.3825 50.1064Z" fill="#EE2742"/>
<path d="M25.7869 42.9782C21.0397 42.9782 16.7419 41.054 13.6309 37.943L19.7089 31.865C21.2644 33.4204 23.4133 34.3826 25.7869 34.3826C27.424 34.3826 28.9542 33.9249 30.2566 33.1305V42.3914C28.8313 42.7741 27.3329 42.9782 25.7869 42.9782Z" fill="#EE2742"/>
</svg>
