<svg width="200" height="68" viewBox="0 0 200 68" fill="none" xmlns="http://www.w3.org/2000/svg">
<path d="M116.844 54.3596C116.681 54.1742 116.49 54.0106 116.272 53.8688C116.054 53.7161 115.808 53.5852 115.536 53.4762C115.263 53.3671 114.969 53.2799 114.652 53.2145C114.347 53.149 114.02 53.1163 113.671 53.1163C112.657 53.1163 111.909 53.3126 111.43 53.7052C110.961 54.0869 110.726 54.6104 110.726 55.2756C110.726 55.7337 110.835 56.0936 111.053 56.3553C111.282 56.617 111.637 56.8297 112.117 56.9933C112.597 57.1569 113.207 57.3259 113.949 57.5004C114.778 57.6749 115.492 57.8821 116.092 58.122C116.692 58.362 117.155 58.6891 117.482 59.1036C117.809 59.5071 117.973 60.0578 117.973 60.7558C117.973 61.2902 117.869 61.7536 117.662 62.1463C117.455 62.5389 117.166 62.866 116.795 63.1278C116.424 63.3895 115.983 63.5858 115.47 63.7167C114.958 63.8366 114.396 63.8966 113.785 63.8966C113.185 63.8966 112.607 63.8366 112.051 63.7167C111.506 63.5858 110.988 63.4004 110.497 63.1605C110.006 62.9097 109.548 62.5934 109.123 62.2117L109.696 61.2793C109.903 61.4974 110.148 61.7046 110.432 61.9009C110.726 62.0863 111.048 62.2553 111.397 62.408C111.757 62.5607 112.138 62.6806 112.542 62.7679C112.956 62.8442 113.382 62.8824 113.818 62.8824C114.745 62.8824 115.465 62.7134 115.977 62.3753C116.501 62.0372 116.763 61.5355 116.763 60.8703C116.763 60.3904 116.632 60.0087 116.37 59.7252C116.108 59.4307 115.716 59.1908 115.192 59.0054C114.669 58.82 114.025 58.6401 113.262 58.4656C112.455 58.2802 111.773 58.073 111.217 57.8439C110.661 57.6149 110.241 57.315 109.957 56.9442C109.685 56.5625 109.548 56.0609 109.548 55.4392C109.548 54.7194 109.723 54.1142 110.072 53.6234C110.432 53.1218 110.922 52.7455 111.544 52.4947C112.166 52.2329 112.88 52.1021 113.687 52.1021C114.2 52.1021 114.674 52.1566 115.11 52.2657C115.557 52.3638 115.966 52.511 116.337 52.7073C116.719 52.9036 117.073 53.149 117.401 53.4435L116.844 54.3596Z" fill="#565656"/>
<path d="M130.239 55.2756H131.335L127.67 63.7985H126.705L124.922 59.5616L123.155 63.7985H122.19L118.526 55.2756H119.606L122.714 62.6534L124.284 58.8091L122.845 55.292H123.842L124.922 58.0566L126.018 55.292H127L125.576 58.8091L127.147 62.6534L130.239 55.2756Z" fill="#565656"/>
<path d="M132.815 63.7985V55.2756H133.927V63.7985H132.815ZM132.815 53.4926V51.8567H133.927V53.4926H132.815Z" fill="#565656"/>
<path d="M140.467 63.3895C140.38 63.4222 140.243 63.4822 140.058 63.5695C139.873 63.6567 139.649 63.733 139.387 63.7985C139.126 63.8639 138.842 63.8966 138.537 63.8966C138.22 63.8966 137.92 63.8366 137.637 63.7167C137.364 63.5967 137.146 63.4168 136.983 63.1768C136.819 62.926 136.737 62.6207 136.737 62.2608V56.159H135.559V55.2756H136.737V52.3965H137.85V55.2756H139.813V56.159H137.85V61.95C137.871 62.2553 137.98 62.4843 138.177 62.637C138.384 62.7897 138.618 62.866 138.88 62.866C139.185 62.866 139.464 62.817 139.714 62.7188C139.965 62.6098 140.118 62.5334 140.172 62.4898L140.467 63.3895Z" fill="#565656"/>
<path d="M141.137 63.046L146.846 56.1099H141.268V55.2756H148.106V56.0281L142.429 62.9642H148.089V63.7985H141.137V63.046Z" fill="#565656"/>
<path d="M153.413 63.9621C152.802 63.9621 152.235 63.8476 151.712 63.6185C151.188 63.3786 150.736 63.0569 150.354 62.6534C149.972 62.239 149.673 61.7646 149.454 61.2302C149.247 60.6958 149.144 60.1232 149.144 59.5125C149.144 58.7164 149.324 57.9857 149.683 57.3205C150.054 56.6552 150.561 56.1263 151.205 55.7337C151.848 55.3302 152.579 55.1284 153.397 55.1284C154.237 55.1284 154.967 55.3302 155.589 55.7337C156.221 56.1372 156.718 56.6716 157.078 57.3368C157.437 57.9912 157.617 58.7109 157.617 59.4962C157.617 59.5834 157.617 59.6707 157.617 59.7579C157.617 59.8342 157.612 59.8942 157.601 59.9378H150.305C150.36 60.5486 150.529 61.0939 150.812 61.5737C151.107 62.0427 151.483 62.4189 151.941 62.7024C152.41 62.9751 152.917 63.1114 153.462 63.1114C154.018 63.1114 154.542 62.9696 155.033 62.6861C155.534 62.4025 155.883 62.0317 156.08 61.5737L157.045 61.8354C156.87 62.239 156.603 62.6043 156.243 62.9315C155.883 63.2586 155.458 63.5149 154.967 63.7003C154.487 63.8748 153.969 63.9621 153.413 63.9621ZM150.272 59.1363H156.57C156.527 58.5146 156.358 57.9694 156.063 57.5004C155.78 57.0315 155.404 56.6661 154.935 56.4044C154.477 56.1317 153.969 55.9954 153.413 55.9954C152.857 55.9954 152.35 56.1317 151.892 56.4044C151.434 56.6661 151.058 57.0369 150.763 57.5168C150.48 57.9857 150.316 58.5255 150.272 59.1363Z" fill="#565656"/>
<path d="M163.587 56.2572C162.845 56.279 162.191 56.4862 161.624 56.8788C161.068 57.2714 160.675 57.8112 160.446 58.4983V63.7985H159.334V55.2756H160.381V57.3205C160.675 56.7206 161.062 56.2353 161.542 55.8645C162.033 55.4938 162.551 55.2865 163.096 55.2429C163.205 55.232 163.298 55.2266 163.374 55.2266C163.461 55.2266 163.532 55.232 163.587 55.2429V56.2572Z" fill="#565656"/>
<path d="M165.118 51.8567H166.23V61.8682C166.23 62.2935 166.307 62.5716 166.459 62.7024C166.612 62.8333 166.797 62.8988 167.015 62.8988C167.212 62.8988 167.408 62.8769 167.604 62.8333C167.801 62.7897 167.97 62.7461 168.111 62.7024L168.308 63.6022C168.101 63.6894 167.844 63.7603 167.539 63.8148C167.244 63.8694 166.988 63.8966 166.77 63.8966C166.268 63.8966 165.865 63.7494 165.559 63.4549C165.265 63.1605 165.118 62.757 165.118 62.2444V51.8567Z" fill="#565656"/>
<path d="M168.839 61.3447C168.839 60.8103 168.991 60.3523 169.297 59.9706C169.602 59.578 170.022 59.278 170.556 59.0708C171.102 58.8527 171.729 58.7437 172.438 58.7437C172.852 58.7437 173.283 58.7764 173.73 58.8418C174.177 58.9073 174.575 59.0054 174.924 59.1363V58.4165C174.924 57.6967 174.711 57.1242 174.286 56.6988C173.861 56.2735 173.272 56.0609 172.519 56.0609C172.061 56.0609 171.609 56.1481 171.162 56.3226C170.725 56.4862 170.267 56.7316 169.788 57.0587L169.362 56.2735C169.918 55.8918 170.464 55.6083 170.998 55.4229C171.532 55.2266 172.078 55.1284 172.634 55.1284C173.681 55.1284 174.51 55.4283 175.12 56.0281C175.731 56.628 176.037 57.4568 176.037 58.5146V62.4571C176.037 62.6098 176.069 62.7243 176.135 62.8006C176.2 62.866 176.304 62.9042 176.446 62.9151V63.7985C176.326 63.8094 176.222 63.8203 176.135 63.8312C176.047 63.8421 175.982 63.8421 175.938 63.8312C175.666 63.8203 175.459 63.733 175.317 63.5695C175.175 63.4059 175.099 63.2314 175.088 63.046L175.071 62.4244C174.69 62.9151 174.193 63.2968 173.583 63.5695C172.972 63.8312 172.35 63.9621 171.718 63.9621C171.173 63.9621 170.676 63.8476 170.229 63.6185C169.793 63.3786 169.449 63.0623 169.199 62.6697C168.959 62.2662 168.839 61.8245 168.839 61.3447ZM174.548 61.999C174.668 61.8463 174.761 61.6991 174.826 61.5573C174.891 61.4156 174.924 61.2902 174.924 61.1811V59.9378C174.553 59.7961 174.166 59.687 173.763 59.6107C173.37 59.5343 172.972 59.4962 172.569 59.4962C171.772 59.4962 171.129 59.6543 170.638 59.9706C170.147 60.2868 169.902 60.7176 169.902 61.2629C169.902 61.5792 169.984 61.8791 170.147 62.1626C170.311 62.4353 170.551 62.6643 170.867 62.8497C171.183 63.0242 171.554 63.1114 171.98 63.1114C172.514 63.1114 173.01 63.0078 173.468 62.8006C173.937 62.5934 174.297 62.3262 174.548 61.999Z" fill="#565656"/>
<path d="M185.605 63.7985H184.493V59.0381C184.493 58.0348 184.345 57.3041 184.051 56.8461C183.757 56.3771 183.293 56.1426 182.66 56.1426C182.224 56.1426 181.793 56.2517 181.368 56.4698C180.943 56.677 180.567 56.966 180.239 57.3368C179.923 57.6967 179.694 58.1111 179.552 58.5801V63.7985H178.44V55.2756H179.454V57.206C179.683 56.7915 179.983 56.4316 180.354 56.1263C180.725 55.81 181.145 55.5646 181.614 55.3902C182.082 55.2157 182.568 55.1284 183.069 55.1284C183.538 55.1284 183.936 55.2157 184.264 55.3902C184.591 55.5646 184.853 55.8155 185.049 56.1426C185.245 56.4589 185.387 56.8461 185.474 57.3041C185.561 57.7512 185.605 58.2529 185.605 58.8091V63.7985Z" fill="#565656"/>
<path d="M187.405 59.5616C187.405 58.7546 187.568 58.0184 187.895 57.3532C188.233 56.677 188.697 56.1372 189.286 55.7337C189.875 55.3302 190.545 55.1284 191.298 55.1284C192.007 55.1284 192.639 55.3193 193.196 55.701C193.763 56.0718 194.204 56.5243 194.521 57.0587V51.8567H195.633V62.4571C195.633 62.6098 195.666 62.7243 195.731 62.8006C195.797 62.866 195.895 62.9042 196.026 62.9151V63.7985C195.807 63.8312 195.638 63.8421 195.518 63.8312C195.289 63.8203 195.088 63.7276 194.913 63.5531C194.739 63.3786 194.651 63.1878 194.651 62.9805V62.1463C194.313 62.7024 193.855 63.1441 193.277 63.4713C192.699 63.7985 192.1 63.9621 191.478 63.9621C190.889 63.9621 190.344 63.8421 189.842 63.6022C189.351 63.3622 188.921 63.0351 188.55 62.6207C188.19 62.2062 187.906 61.7373 187.699 61.2138C187.503 60.6794 187.405 60.1287 187.405 59.5616ZM194.521 60.8703V58.2365C194.379 57.8439 194.15 57.4895 193.834 57.1732C193.517 56.8461 193.157 56.5898 192.754 56.4044C192.361 56.2081 191.969 56.1099 191.576 56.1099C191.118 56.1099 190.704 56.2081 190.333 56.4044C189.962 56.5898 189.64 56.8461 189.368 57.1732C189.106 57.5004 188.904 57.8712 188.762 58.2856C188.621 58.7 188.55 59.1254 188.55 59.5616C188.55 60.0196 188.626 60.4559 188.779 60.8703C188.942 61.2847 189.171 61.6555 189.466 61.9827C189.76 62.2989 190.098 62.5443 190.48 62.7188C190.862 62.8933 191.276 62.9805 191.723 62.9805C192.007 62.9805 192.301 62.926 192.607 62.817C192.912 62.7079 193.201 62.5607 193.474 62.3753C193.757 62.179 193.992 61.95 194.177 61.6882C194.362 61.4265 194.477 61.1538 194.521 60.8703Z" fill="#565656"/>
<path d="M87.9234 31.7347C88.0704 32.1757 88.1623 32.5247 88.199 32.7819C88.2358 33.0391 88.1868 33.2351 88.052 33.3698C87.9173 33.4923 87.6785 33.5658 87.3355 33.5903C86.9926 33.627 86.5211 33.6454 85.9209 33.6454C85.2963 33.6454 84.8064 33.6331 84.4512 33.6086C84.1083 33.5964 83.845 33.5658 83.6613 33.5168C83.4775 33.4555 83.3489 33.3759 83.2754 33.2779C83.202 33.18 83.1407 33.0514 83.0917 32.8921L81.4934 28.1156H72.5649L71.0584 32.7635C71.0094 32.935 70.9421 33.082 70.8563 33.2045C70.7828 33.3147 70.6542 33.4065 70.4705 33.48C70.2991 33.5413 70.048 33.5841 69.7173 33.6086C69.3989 33.6331 68.9763 33.6454 68.4497 33.6454C67.8863 33.6454 67.4454 33.627 67.1269 33.5903C66.8085 33.5535 66.588 33.4678 66.4655 33.3331C66.3431 33.1861 66.3002 32.984 66.3369 32.7268C66.3737 32.4696 66.4655 32.1267 66.6125 31.698L73.9427 10.6075C74.0162 10.3993 74.102 10.234 74.1999 10.1115C74.2979 9.97678 74.451 9.8788 74.6592 9.81756C74.8797 9.74407 75.1797 9.70121 75.5594 9.68896C75.9391 9.66446 76.4413 9.65222 77.0659 9.65222C77.7885 9.65222 78.3641 9.66446 78.7928 9.68896C79.2215 9.70121 79.5522 9.74407 79.7849 9.81756C80.0298 9.8788 80.2013 9.97678 80.2993 10.1115C80.4095 10.2462 80.5014 10.4299 80.5748 10.6626L87.9234 31.7347ZM77.0108 14.3002H76.9924L73.6304 24.4045H80.3728L77.0108 14.3002Z" fill="white"/>
<path d="M103.392 30.3018C103.392 30.6202 103.38 30.8897 103.355 31.1101C103.343 31.3183 103.319 31.4959 103.282 31.6429C103.258 31.7899 103.221 31.9123 103.172 32.0103C103.135 32.0961 103.043 32.2124 102.896 32.3594C102.749 32.4941 102.498 32.6656 102.143 32.8738C101.788 33.0697 101.384 33.2473 100.93 33.4065C100.477 33.5658 99.9813 33.6944 99.4424 33.7924C98.9157 33.8903 98.3707 33.9393 97.8073 33.9393C96.5458 33.9393 95.4251 33.7434 94.4453 33.3514C93.4777 32.9595 92.6633 32.3839 92.0019 31.6245C91.3405 30.8529 90.8384 29.916 90.4954 28.8137C90.1648 27.7114 89.9994 26.4499 89.9994 25.0292C89.9994 23.388 90.2015 21.9734 90.6057 20.7853C91.0221 19.5851 91.5977 18.593 92.3326 17.8092C93.0675 17.0253 93.937 16.4435 94.9413 16.0639C95.9457 15.6842 97.0479 15.4943 98.2482 15.4943C98.7381 15.4943 99.2158 15.5372 99.6812 15.6229C100.159 15.7087 100.6 15.825 101.004 15.972C101.42 16.119 101.788 16.2843 102.106 16.468C102.437 16.6518 102.67 16.811 102.804 16.9457C102.939 17.0804 103.031 17.1968 103.08 17.2948C103.141 17.3805 103.184 17.4968 103.209 17.6438C103.245 17.7908 103.27 17.9745 103.282 18.195C103.306 18.4032 103.319 18.6604 103.319 18.9666C103.319 19.6769 103.258 20.1791 103.135 20.473C103.013 20.7547 102.853 20.8956 102.657 20.8956C102.449 20.8956 102.229 20.8098 101.996 20.6384C101.763 20.4669 101.488 20.2771 101.169 20.0688C100.851 19.8606 100.471 19.6708 100.03 19.4993C99.5893 19.3279 99.0627 19.2421 98.4503 19.2421C97.25 19.2421 96.3315 19.7075 95.6946 20.6384C95.0577 21.5569 94.7393 22.9103 94.7393 24.6985C94.7393 25.5803 94.8189 26.358 94.9781 27.0316C95.1373 27.7053 95.37 28.2687 95.6762 28.7218C95.9946 29.175 96.3866 29.5179 96.852 29.7506C97.3296 29.9711 97.8808 30.0813 98.5054 30.0813C99.1423 30.0813 99.6873 29.9895 100.14 29.8057C100.606 29.6098 101.01 29.3954 101.353 29.1627C101.696 28.93 101.984 28.7218 102.216 28.5381C102.449 28.3421 102.645 28.2442 102.804 28.2442C102.915 28.2442 103.006 28.2748 103.08 28.336C103.153 28.3973 103.209 28.5136 103.245 28.6851C103.294 28.8443 103.331 29.0525 103.355 29.3097C103.38 29.5669 103.392 29.8976 103.392 30.3018Z" fill="white"/>
<path d="M122.296 39.414C122.296 39.5365 122.26 39.6467 122.186 39.7447C122.113 39.8427 121.99 39.9223 121.819 39.9835C121.647 40.057 121.415 40.1121 121.121 40.1489C120.827 40.1856 120.453 40.204 120 40.204C119.547 40.204 119.173 40.1856 118.879 40.1489C118.585 40.1121 118.347 40.057 118.163 39.9835C117.991 39.9223 117.869 39.8427 117.795 39.7447C117.734 39.6467 117.704 39.5365 117.704 39.414V31.6245C117.263 32.0287 116.834 32.3839 116.418 32.6901C116.001 32.984 115.585 33.229 115.168 33.4249C114.752 33.6086 114.323 33.7434 113.882 33.8291C113.441 33.9148 112.976 33.9577 112.486 33.9577C111.286 33.9577 110.263 33.7189 109.418 33.2412C108.573 32.7513 107.881 32.0961 107.342 31.2755C106.815 30.4549 106.43 29.4995 106.185 28.4095C105.94 27.3072 105.817 26.1498 105.817 24.9373C105.817 23.4798 105.976 22.1693 106.295 21.0058C106.613 19.8423 107.079 18.8502 107.691 18.0296C108.304 17.209 109.057 16.5783 109.951 16.1374C110.845 15.6964 111.88 15.476 113.056 15.476C113.509 15.476 113.944 15.525 114.36 15.6229C114.776 15.7087 115.193 15.8679 115.609 16.1006C116.026 16.3211 116.454 16.615 116.895 16.9824C117.348 17.3376 117.844 17.7785 118.383 18.3052V16.5232C118.383 16.4007 118.414 16.2966 118.475 16.2108C118.549 16.1129 118.659 16.0332 118.806 15.972C118.965 15.9108 119.167 15.8679 119.412 15.8434C119.657 15.8067 119.976 15.7883 120.367 15.7883C120.735 15.7883 121.041 15.8067 121.286 15.8434C121.543 15.8679 121.745 15.9108 121.892 15.972C122.039 16.0332 122.143 16.1129 122.205 16.2108C122.266 16.2966 122.296 16.4007 122.296 16.5232V39.414ZM117.704 21.9611C117.042 21.1283 116.405 20.4914 115.793 20.0505C115.193 19.6096 114.562 19.3891 113.901 19.3891C113.301 19.3891 112.78 19.5422 112.339 19.8484C111.91 20.1423 111.561 20.5404 111.292 21.0425C111.035 21.5447 110.839 22.1081 110.704 22.7327C110.582 23.3451 110.52 23.9759 110.52 24.625C110.52 25.3108 110.575 25.9845 110.686 26.6458C110.796 27.295 110.974 27.8706 111.218 28.3728C111.476 28.8749 111.812 29.2791 112.229 29.5853C112.645 29.8915 113.172 30.0446 113.809 30.0446C114.127 30.0446 114.433 30.0017 114.727 29.916C115.034 29.818 115.34 29.6649 115.646 29.4567C115.964 29.2485 116.289 28.979 116.62 28.6483C116.95 28.3054 117.312 27.889 117.704 27.3991V21.9611Z" fill="white"/>
<path d="M142.505 32.9105C142.505 33.033 142.475 33.1432 142.413 33.2412C142.352 33.3269 142.242 33.4004 142.083 33.4617C141.936 33.5229 141.734 33.5658 141.476 33.5903C141.231 33.627 140.919 33.6454 140.539 33.6454C140.135 33.6454 139.805 33.627 139.547 33.5903C139.302 33.5658 139.106 33.5229 138.959 33.4617C138.812 33.4004 138.708 33.3269 138.647 33.2412C138.586 33.1432 138.555 33.033 138.555 32.9105V31.0183C137.649 31.9981 136.724 32.7329 135.781 33.2228C134.85 33.7127 133.883 33.9577 132.878 33.9577C131.752 33.9577 130.802 33.774 130.031 33.4065C129.272 33.0391 128.653 32.537 128.175 31.9001C127.71 31.2632 127.373 30.5283 127.165 29.6955C126.969 28.8504 126.871 27.8032 126.871 26.554V16.5232C126.871 16.4007 126.902 16.2966 126.963 16.2108C127.036 16.1129 127.159 16.0332 127.33 15.972C127.514 15.9108 127.753 15.8679 128.047 15.8434C128.353 15.8067 128.727 15.7883 129.167 15.7883C129.621 15.7883 129.994 15.8067 130.288 15.8434C130.582 15.8679 130.815 15.9108 130.986 15.972C131.17 16.0332 131.299 16.1129 131.372 16.2108C131.445 16.2966 131.482 16.4007 131.482 16.5232V25.7824C131.482 26.6397 131.537 27.295 131.648 27.7481C131.758 28.2013 131.923 28.5932 132.144 28.9239C132.376 29.2423 132.664 29.4934 133.007 29.6771C133.362 29.8486 133.773 29.9343 134.238 29.9343C134.826 29.9343 135.414 29.72 136.002 29.2913C136.602 28.8627 137.239 28.238 137.912 27.4174V16.5232C137.912 16.4007 137.943 16.2966 138.004 16.2108C138.078 16.1129 138.2 16.0332 138.372 15.972C138.555 15.9108 138.794 15.8679 139.088 15.8434C139.382 15.8067 139.756 15.7883 140.209 15.7883C140.662 15.7883 141.035 15.8067 141.329 15.8434C141.623 15.8679 141.856 15.9108 142.027 15.972C142.199 16.0332 142.321 16.1129 142.395 16.2108C142.468 16.2966 142.505 16.4007 142.505 16.5232V32.9105Z" fill="white"/>
<path d="M151.801 32.9105C151.801 33.033 151.764 33.1432 151.691 33.2412C151.617 33.3269 151.489 33.4004 151.305 33.4617C151.134 33.5229 150.901 33.5658 150.607 33.5903C150.313 33.627 149.939 33.6454 149.486 33.6454C149.033 33.6454 148.66 33.627 148.366 33.5903C148.072 33.5658 147.833 33.5229 147.649 33.4617C147.478 33.4004 147.355 33.3269 147.282 33.2412C147.208 33.1432 147.171 33.033 147.171 32.9105V16.5599C147.171 16.4374 147.208 16.3333 147.282 16.2476C147.355 16.1496 147.478 16.07 147.649 16.0088C147.833 15.9353 148.072 15.8802 148.366 15.8434C148.66 15.8067 149.033 15.7883 149.486 15.7883C149.939 15.7883 150.313 15.8067 150.607 15.8434C150.901 15.8802 151.134 15.9353 151.305 16.0088C151.489 16.07 151.617 16.1496 151.691 16.2476C151.764 16.3333 151.801 16.4374 151.801 16.5599V32.9105ZM152.15 10.975C152.15 11.9058 151.96 12.5488 151.581 12.904C151.201 13.2592 150.497 13.4367 149.468 13.4367C148.427 13.4367 147.723 13.2653 147.355 12.9223C147 12.5794 146.822 11.9609 146.822 11.0668C146.822 10.136 147.006 9.493 147.374 9.13781C147.753 8.77038 148.464 8.58667 149.505 8.58667C150.533 8.58667 151.232 8.76426 151.599 9.11944C151.966 9.46238 152.15 10.0809 152.15 10.975Z" fill="white"/>
<path d="M167.968 28.2809C167.968 29.2117 167.79 30.0323 167.435 30.7427C167.092 31.453 166.602 32.0471 165.966 32.5247C165.329 33.0024 164.575 33.3576 163.706 33.5903C162.836 33.8352 161.893 33.9577 160.877 33.9577C160.264 33.9577 159.676 33.9087 159.113 33.8107C158.562 33.725 158.066 33.6148 157.625 33.48C157.184 33.3331 156.817 33.1861 156.523 33.0391C156.229 32.8921 156.014 32.7574 155.88 32.6349C155.745 32.5002 155.641 32.2981 155.567 32.0287C155.494 31.747 155.457 31.3367 155.457 30.7978C155.457 30.4426 155.469 30.1609 155.494 29.9527C155.518 29.7323 155.555 29.5608 155.604 29.4383C155.653 29.3036 155.714 29.2179 155.788 29.1811C155.861 29.1321 155.953 29.1076 156.063 29.1076C156.198 29.1076 156.394 29.1872 156.651 29.3465C156.921 29.4934 157.251 29.6588 157.643 29.8425C158.035 30.0262 158.488 30.1977 159.003 30.3569C159.529 30.5161 160.123 30.5957 160.785 30.5957C161.201 30.5957 161.569 30.5528 161.887 30.4671C162.218 30.3814 162.499 30.2589 162.732 30.0997C162.977 29.9405 163.161 29.7384 163.283 29.4934C163.406 29.2485 163.467 28.9668 163.467 28.6483C163.467 28.2809 163.351 27.9686 163.118 27.7114C162.897 27.4419 162.597 27.2092 162.218 27.0133C161.85 26.8173 161.428 26.6336 160.95 26.4621C160.485 26.2907 160.001 26.1008 159.499 25.8926C159.009 25.6844 158.525 25.4456 158.047 25.1761C157.582 24.9067 157.159 24.576 156.78 24.1841C156.412 23.7921 156.112 23.3206 155.88 22.7695C155.659 22.2183 155.549 21.5569 155.549 20.7853C155.549 20.0015 155.702 19.285 156.008 18.6359C156.314 17.9745 156.755 17.4111 157.331 16.9457C157.907 16.4803 158.605 16.119 159.425 15.8618C160.258 15.6046 161.189 15.476 162.218 15.476C162.732 15.476 163.228 15.5127 163.706 15.5862C164.196 15.6597 164.637 15.7516 165.029 15.8618C165.42 15.972 165.751 16.0945 166.021 16.2292C166.29 16.3517 166.48 16.4619 166.59 16.5599C166.713 16.6456 166.798 16.7375 166.847 16.8355C166.896 16.9212 166.933 17.0314 166.958 17.1662C166.982 17.2886 167 17.4479 167.013 17.6438C167.037 17.8275 167.049 18.0602 167.049 18.3419C167.049 18.6726 167.037 18.9421 167.013 19.1503C167 19.3585 166.97 19.5238 166.921 19.6463C166.884 19.7688 166.829 19.8545 166.755 19.9035C166.682 19.9402 166.596 19.9586 166.498 19.9586C166.388 19.9586 166.217 19.8974 165.984 19.7749C165.751 19.6402 165.457 19.4993 165.102 19.3524C164.759 19.2054 164.355 19.0707 163.89 18.9482C163.436 18.8135 162.916 18.7461 162.328 18.7461C161.912 18.7461 161.55 18.789 161.244 18.8747C160.938 18.9604 160.687 19.0829 160.491 19.2421C160.295 19.4014 160.148 19.5912 160.05 19.8116C159.952 20.0199 159.903 20.2464 159.903 20.4914C159.903 20.8711 160.019 21.1895 160.252 21.4467C160.485 21.7039 160.791 21.9305 161.171 22.1265C161.55 22.3224 161.979 22.5061 162.457 22.6776C162.946 22.8491 163.436 23.0389 163.926 23.2471C164.428 23.4431 164.918 23.6758 165.396 23.9452C165.886 24.2147 166.321 24.5454 166.7 24.9373C167.08 25.3292 167.386 25.8008 167.619 26.3519C167.852 26.8908 167.968 27.5338 167.968 28.2809Z" fill="white"/>
<path d="M197.528 32.9105C197.528 33.033 197.491 33.1432 197.418 33.2412C197.344 33.3269 197.222 33.4004 197.05 33.4617C196.879 33.5229 196.646 33.5658 196.352 33.5903C196.058 33.627 195.684 33.6454 195.231 33.6454C194.766 33.6454 194.386 33.627 194.092 33.5903C193.798 33.5658 193.559 33.5229 193.376 33.4617C193.204 33.4004 193.082 33.3269 193.008 33.2412C192.947 33.1432 192.916 33.033 192.916 32.9105V23.192C192.916 22.6409 192.861 22.1387 192.751 21.6855C192.653 21.2324 192.494 20.8466 192.273 20.5281C192.065 20.1975 191.796 19.9464 191.465 19.7749C191.147 19.5912 190.761 19.4993 190.308 19.4993C189.757 19.4993 189.199 19.7137 188.636 20.1423C188.073 20.571 187.46 21.1956 186.799 22.0162V32.9105C186.799 33.033 186.762 33.1432 186.689 33.2412C186.615 33.3269 186.486 33.4004 186.303 33.4617C186.131 33.5229 185.899 33.5658 185.605 33.5903C185.311 33.627 184.943 33.6454 184.502 33.6454C184.049 33.6454 183.676 33.627 183.382 33.5903C183.088 33.5658 182.849 33.5229 182.665 33.4617C182.494 33.4004 182.371 33.3269 182.298 33.2412C182.224 33.1432 182.188 33.033 182.188 32.9105V23.192C182.188 22.6409 182.132 22.1387 182.022 21.6855C181.924 21.2324 181.771 20.8466 181.563 20.5281C181.355 20.1975 181.085 19.9464 180.755 19.7749C180.424 19.5912 180.038 19.4993 179.597 19.4993C179.034 19.4993 178.47 19.7137 177.907 20.1423C177.344 20.571 176.737 21.1956 176.088 22.0162V32.9105C176.088 33.033 176.051 33.1432 175.978 33.2412C175.904 33.3269 175.776 33.4004 175.592 33.4617C175.421 33.5229 175.188 33.5658 174.894 33.5903C174.6 33.627 174.227 33.6454 173.773 33.6454C173.32 33.6454 172.947 33.627 172.653 33.5903C172.359 33.5658 172.12 33.5229 171.936 33.4617C171.765 33.4004 171.642 33.3269 171.569 33.2412C171.495 33.1432 171.459 33.033 171.459 32.9105V16.5232C171.459 16.4007 171.489 16.2966 171.55 16.2108C171.612 16.1129 171.722 16.0332 171.881 15.972C172.04 15.9108 172.242 15.8679 172.487 15.8434C172.745 15.8067 173.063 15.7883 173.443 15.7883C173.835 15.7883 174.159 15.8067 174.416 15.8434C174.674 15.8679 174.87 15.9108 175.004 15.972C175.151 16.0332 175.255 16.1129 175.317 16.2108C175.378 16.2966 175.408 16.4007 175.408 16.5232V18.4154C176.315 17.4356 177.215 16.7007 178.109 16.2108C179.015 15.7209 179.958 15.476 180.938 15.476C181.612 15.476 182.218 15.5495 182.757 15.6964C183.296 15.8312 183.774 16.0332 184.19 16.3027C184.619 16.5599 184.986 16.8722 185.292 17.2396C185.599 17.6071 185.856 18.0174 186.064 18.4705C186.554 17.9439 187.031 17.4907 187.497 17.111C187.975 16.7314 188.44 16.4252 188.893 16.1925C189.359 15.9475 189.818 15.7699 190.271 15.6597C190.736 15.5372 191.208 15.476 191.686 15.476C192.776 15.476 193.694 15.6597 194.441 16.0271C195.188 16.3946 195.789 16.8967 196.242 17.5336C196.707 18.1582 197.038 18.8931 197.234 19.7382C197.43 20.5833 197.528 21.4773 197.528 22.4204V32.9105Z" fill="white"/>
<path d="M48.6449 17.4755L56.4372 9.68316C50.4545 3.70041 42.1894 0 33.0601 0C14.8015 0 0 14.8015 0 33.0601C0 42.1894 3.70041 50.4545 9.68316 56.4372L17.4755 48.6449C13.487 44.6564 11.02 39.1463 11.02 33.0601C11.02 20.8877 20.8877 11.02 33.0601 11.02C39.1463 11.02 44.6564 13.487 48.6449 17.4755Z" fill="white"/>
<path d="M40.8525 25.2678L25.2678 40.8525C23.2736 38.8583 22.0401 36.1032 22.0401 33.0601C22.0401 26.9739 26.9739 22.0401 33.0601 22.0401C36.1032 22.0401 38.8583 23.2736 40.8525 25.2678Z" fill="white"/>
<path d="M44.0801 64.239V33.0602C44.0801 30.0171 42.8467 27.2621 40.8525 25.2678L48.6449 17.4755C52.6333 21.464 55.1001 26.974 55.1001 33.0602V57.7021C51.9203 60.5481 48.1864 62.7877 44.0801 64.239Z" fill="white"/>
<path d="M33.0601 55.1002C26.9739 55.1002 21.464 52.6333 17.4755 48.6449L25.2678 40.8525C27.2621 42.8467 30.017 44.0802 33.0601 44.0802C35.159 44.0802 37.1208 43.4934 38.7905 42.475V54.3479C36.9632 54.8386 35.0422 55.1002 33.0601 55.1002Z" fill="white"/>
</svg>