<svg width="32" height="32" viewBox="0 0 32 32" fill="none" xmlns="http://www.w3.org/2000/svg">
<path d="M26.6663 12.9227C26.6663 22.1534 15.9997 29.3334 15.9997 29.3334C15.9997 29.3334 5.33301 22.1534 5.33301 12.9227C5.33301 10.2027 6.45701 7.59475 8.45701 5.67075C10.457 3.74675 13.1703 2.66675 15.9997 2.66675C18.829 2.66675 21.5423 3.74675 23.5423 5.67075C25.5423 7.59475 26.6663 10.2041 26.6663 12.9241V12.9227Z" fill="white"/>
<path d="M15.9997 18.0001C17.2374 18.0001 18.4243 17.5084 19.2995 16.6332C20.1747 15.7581 20.6663 14.5711 20.6663 13.3334C20.6663 12.0957 20.1747 10.9088 19.2995 10.0336C18.4243 9.15841 17.2374 8.66675 15.9997 8.66675C14.762 8.66675 13.575 9.15841 12.6998 10.0336C11.8247 10.9088 11.333 12.0957 11.333 13.3334C11.333 14.5711 11.8247 15.7581 12.6998 16.6332C13.575 17.5084 14.762 18.0001 15.9997 18.0001Z" fill="#EE2742"/>
</svg>
