<svg width="48" height="48" viewBox="0 0 48 48" fill="none" xmlns="http://www.w3.org/2000/svg">
<path d="M41.1566 5.35156H6.84344C6.01824 5.35156 5.35156 6.01824 5.35156 6.84344V41.1566C5.35156 41.9818 6.01824 42.6484 6.84344 42.6484H41.1566C41.9818 42.6484 42.6484 41.9818 42.6484 41.1566V6.84344C42.6484 6.01824 41.9818 5.35156 41.1566 5.35156ZM36.8488 16.2376H33.8697C31.534 16.2376 31.0817 17.3472 31.0817 18.9789V22.5734H36.6576L35.9303 28.2006H31.0817V42.6484H25.2681V28.2052H20.4055V22.5734H25.2681V18.4241C25.2681 13.6082 28.2099 10.9834 32.5084 10.9834C34.569 10.9834 36.3359 11.1372 36.8534 11.2072V16.2376H36.8488Z" fill="white"/>
</svg>
